<svg width="126" height="126" viewBox="0 0 126 126" fill="none" xmlns="http://www.w3.org/2000/svg">
<rect width="126" height="126" fill="#1E1E1E"/>
<g id="Login Choose" clip-path="url(#clip0_3_684)">
<rect width="1728" height="1117" transform="translate(-311 -547)" fill="#163B45"/>
<g id="Login / Register">
<g id="Register">
<g id="Choose">
<g id="Group 2">
<g id="Frame 1" clip-path="url(#clip1_3_684)">
<g id="Rectangle 1" filter="url(#filter0_b_3_684)">
<rect x="-114.142" y="-97.0823" width="355.569" height="442.165" fill="url(#paint0_linear_3_684)" fill-opacity="0.025"/>
<rect x="-113.392" y="-96.3323" width="354.069" height="440.665" stroke="#616C78" stroke-opacity="0.5" stroke-width="1.5"/>
</g>
</g>
<g id="Rectangle 2" filter="url(#filter1_b_3_684)">
<mask id="path-3-inside-1_3_684" fill="white">
<path d="M-114.037 -97.4608H241.532V344.704H-114.037V-97.4608Z"/>
</mask>
<path d="M241.532 342.704H-114.037V346.704H241.532V342.704Z" fill="#8AC186" mask="url(#path-3-inside-1_3_684)"/>
</g>
<g id="Logo" opacity="0.9">
<g id="maki:doctor">
<path id="Vector" d="M46.0807 58.9549C40.5554 58.9549 35.2563 56.7599 31.3493 52.8529C27.4423 48.9459 25.2474 43.6469 25.2474 38.1215V21.4549C25.2474 20.3498 25.6864 19.29 26.4678 18.5086C27.2492 17.7272 28.309 17.2882 29.414 17.2882H33.5807C34.6858 17.2882 35.7456 16.8492 36.527 16.0678C37.3084 15.2864 37.7474 14.2266 37.7474 13.1215C37.7474 12.0164 37.3084 10.9566 36.527 10.1752C35.7456 9.39384 34.6858 8.95485 33.5807 8.95485H29.414C26.0988 8.95485 22.9194 10.2718 20.5752 12.616C18.231 14.9602 16.914 18.1396 16.914 21.4549V38.1215C16.9194 42.8288 18.0672 47.4644 20.259 51.6302C22.4508 55.796 25.621 59.3676 29.4974 62.0382C33.2216 65.3216 36.242 69.3257 38.3761 73.8087C40.5101 78.2916 41.7137 83.1606 41.914 88.1215C41.914 95.857 44.9869 103.276 50.4568 108.745C55.9266 114.215 63.3452 117.288 71.0807 117.288C78.8162 117.288 86.2348 114.215 91.7046 108.745C97.1745 103.276 100.247 95.857 100.247 88.1215V83.3715C104.175 82.3574 107.598 79.9456 109.875 76.5882C112.152 73.2307 113.126 69.1582 112.615 65.134C112.103 61.1098 110.142 57.4101 107.098 54.7285C104.055 52.0469 100.137 50.5674 96.0807 50.5674C92.0241 50.5674 88.1068 52.0469 85.0631 54.7285C82.0193 57.4101 80.058 61.1098 79.5469 65.134C79.0357 69.1582 80.0098 73.2307 82.2865 76.5882C84.5632 79.9456 87.9863 82.3574 91.914 83.3715V88.1215C91.914 93.6469 89.7191 98.9459 85.8121 102.853C81.9051 106.76 76.606 108.955 71.0807 108.955C65.5554 108.955 60.2563 106.76 56.3493 102.853C52.4423 98.9459 50.2474 93.6469 50.2474 88.1215C50.4583 83.1544 51.6748 78.2817 53.8234 73.7984C55.972 69.3151 59.0079 65.3143 62.7474 62.0382C66.6083 59.3583 69.7623 55.7827 71.9393 51.6174C74.1162 47.4522 75.2513 42.8214 75.2474 38.1215V21.4549C75.2474 18.1396 73.9304 14.9602 71.5862 12.616C69.242 10.2718 66.0626 8.95485 62.7474 8.95485H58.5807C57.4756 8.95485 56.4158 9.39384 55.6344 10.1752C54.853 10.9566 54.414 12.0164 54.414 13.1215C54.414 14.2266 54.853 15.2864 55.6344 16.0678C56.4158 16.8492 57.4756 17.2882 58.5807 17.2882H62.7474C63.8524 17.2882 64.9122 17.7272 65.6936 18.5086C66.475 19.29 66.914 20.3498 66.914 21.4549V38.1215C66.914 40.8574 66.3752 43.5665 65.3282 46.0941C64.2812 48.6217 62.7466 50.9184 60.8121 52.8529C58.8775 54.7875 56.5809 56.322 54.0533 57.369C51.5257 58.416 48.8166 58.9549 46.0807 58.9549ZM96.0807 75.6215C93.8706 75.6215 91.7509 74.7435 90.1881 73.1807C88.6253 71.6179 87.7474 69.4983 87.7474 67.2882C87.7474 65.078 88.6253 62.9584 90.1881 61.3956C91.7509 59.8328 93.8706 58.9549 96.0807 58.9549C98.2908 58.9549 100.41 59.8328 101.973 61.3956C103.536 62.9584 104.414 65.078 104.414 67.2882C104.414 69.4983 103.536 71.6179 101.973 73.1807C100.41 74.7435 98.2908 75.6215 96.0807 75.6215Z" fill="#8AC186"/>
</g>
</g>
</g>
</g>
</g>
</g>
</g>
<defs>
<filter id="filter0_b_3_684" x="-194.142" y="-177.082" width="515.569" height="602.165" filterUnits="userSpaceOnUse" color-interpolation-filters="sRGB">
<feFlood flood-opacity="0" result="BackgroundImageFix"/>
<feGaussianBlur in="BackgroundImageFix" stdDeviation="40"/>
<feComposite in2="SourceAlpha" operator="in" result="effect1_backgroundBlur_3_684"/>
<feBlend mode="normal" in="SourceGraphic" in2="effect1_backgroundBlur_3_684" result="shape"/>
</filter>
<filter id="filter1_b_3_684" x="-134.037" y="-117.461" width="395.569" height="482.165" filterUnits="userSpaceOnUse" color-interpolation-filters="sRGB">
<feFlood flood-opacity="0" result="BackgroundImageFix"/>
<feGaussianBlur in="BackgroundImageFix" stdDeviation="10"/>
<feComposite in2="SourceAlpha" operator="in" result="effect1_backgroundBlur_3_684"/>
<feBlend mode="normal" in="SourceGraphic" in2="effect1_backgroundBlur_3_684" result="shape"/>
</filter>
<linearGradient id="paint0_linear_3_684" x1="63.6427" y1="-97.0823" x2="63.6427" y2="345.082" gradientUnits="userSpaceOnUse">
<stop stop-color="white"/>
<stop offset="1" stop-color="white"/>
</linearGradient>
<clipPath id="clip0_3_684">
<rect width="1728" height="1117" fill="white" transform="translate(-311 -547)"/>
</clipPath>
<clipPath id="clip1_3_684">
<rect width="355" height="442" fill="white" transform="translate(-113.857 -97)"/>
</clipPath>
</defs>
</svg>
