<svg width="126" height="126" viewBox="0 0 126 126" fill="none" xmlns="http://www.w3.org/2000/svg">
<g id="mdi:patient">
<path id="Vector" d="M42.2047 31.8715C42.2047 20.3611 51.5276 11.0382 63.038 11.0382C74.5484 11.0382 83.8714 20.3611 83.8714 31.8715C83.8714 43.3819 74.5484 52.7049 63.038 52.7049C51.5276 52.7049 42.2047 43.3819 42.2047 31.8715ZM89.0797 115.205H94.288C100.017 115.205 104.705 110.517 104.705 104.788V79.8924C104.705 74.059 101.528 68.6944 96.3193 66.0382C94.0797 64.8924 91.6839 63.7986 89.0797 62.809V115.205ZM64.8089 89.1632L78.663 59.6319C73.8193 58.5382 68.6109 57.9132 63.038 57.9132C49.8609 57.9132 38.5068 61.559 29.7568 66.0382C27.2154 67.3471 25.0865 69.3347 23.6063 71.7803C22.126 74.2259 21.3524 77.0338 21.3714 79.8924V115.205H33.5589C32.413 112.861 31.788 110.205 31.788 107.392C31.788 97.3403 39.9651 89.1632 50.0172 89.1632H64.8089ZM52.6214 115.205L59.9651 99.5799H50.0172C45.6943 99.5799 42.2047 103.069 42.2047 107.392C42.2047 111.715 45.6943 115.205 50.0172 115.205H52.6214Z" fill="white"/>
</g>
</svg>
