<svg width="254" height="142" viewBox="0 0 254 142" fill="none" xmlns="http://www.w3.org/2000/svg">
<g opacity="0.2">
<path d="M65.607 45.1057L48.4452 48.7521L48.366 105.192C48.366 115.616 56.2136 122.354 66.6375 122.354C72.4242 122.354 76.6651 121.284 79.0035 120.015V106.619C76.7444 107.53 65.6467 110.78 65.6467 100.396V75.347H79.0035V60.3651H65.6467L65.607 45.1057ZM100.921 65.5572L99.8514 60.3651H84.6317V121.085H102.19V80.222C106.351 74.7524 113.367 75.8226 115.626 76.536V60.3651C113.248 59.5327 105.043 57.987 100.921 65.5572ZM137.504 36.9014L119.827 40.6667V55.0144L137.504 51.2491V36.9014ZM18.0058 78.2403C18.0058 75.5055 20.3046 74.4354 23.9907 74.3957C29.3413 74.3957 36.1585 76.0208 41.5092 78.9141V62.3468C35.6829 60.048 29.8566 59.1364 24.0303 59.1364C9.76183 59.1364 0.249512 66.5877 0.249512 79.033C0.249512 98.5332 27.0029 95.3625 27.0029 103.765C27.0029 107.015 24.1888 108.085 20.265 108.085C14.4387 108.085 6.90813 105.667 1.00257 102.457V118.311C7.54229 121.125 14.1613 122.314 20.2254 122.314C34.8506 122.314 44.9178 116.052 44.9178 103.369C44.9178 82.4019 18.0058 86.1672 18.0058 78.2403ZM253.872 91.4386C253.872 73.4049 245.152 59.176 228.426 59.176C211.7 59.176 201.514 73.4049 201.514 91.3197C201.514 112.524 213.524 122.314 230.646 122.314C239.048 122.314 245.35 120.412 250.146 117.756V104.518C245.35 106.936 239.841 108.402 232.865 108.402C226.008 108.402 219.984 105.985 219.191 97.7405H253.634C253.713 96.8289 253.872 93.1429 253.872 91.4386ZM219.033 84.78C219.033 76.8531 223.908 73.5238 228.307 73.5238C232.627 73.5238 237.225 76.8531 237.225 84.78H219.033ZM174.285 59.176C167.389 59.176 162.95 62.4261 160.492 64.6853L159.581 60.3254H144.084V141.497L161.681 137.772L161.721 117.875C164.258 119.738 168.023 122.314 174.166 122.314C186.77 122.314 198.264 113.119 198.264 90.7648C198.304 70.3134 186.651 59.176 174.285 59.176ZM170.084 107.728C165.962 107.728 163.505 106.222 161.8 104.399L161.681 78.2403C163.505 76.2189 166.041 74.7524 170.084 74.7524C176.505 74.7524 180.944 81.966 180.944 91.1612C180.983 100.634 176.624 107.728 170.084 107.728ZM119.867 121.085H137.544V60.3651H119.867V121.085Z" fill="#163B45"/>
<path d="M18.0387 21.9727V0.972655H24.9687C26.3787 0.972655 27.6187 1.19766 28.6887 1.64766C29.7587 2.09766 30.5887 2.82266 31.1787 3.82266C31.7787 4.82266 32.0787 6.14266 32.0787 7.78266C32.0787 9.39266 31.7787 10.7027 31.1787 11.7127C30.5887 12.7127 29.7587 13.4477 28.6887 13.9177C27.6187 14.3877 26.3787 14.6227 24.9687 14.6227H21.0387V21.9727H18.0387ZM21.0387 12.0727H24.5487C26.0787 12.0727 27.2237 11.7277 27.9837 11.0377C28.7537 10.3377 29.1387 9.26266 29.1387 7.81266C29.1387 6.35266 28.7737 5.27266 28.0437 4.57265C27.3237 3.87266 26.1587 3.52266 24.5487 3.52266H21.0387V12.0727ZM48.8566 22.3927C46.8566 22.3927 45.0766 21.9477 43.5166 21.0577C41.9566 20.1577 40.7316 18.8927 39.8416 17.2627C38.9516 15.6227 38.5066 13.6927 38.5066 11.4727C38.5066 9.25266 38.9516 7.32766 39.8416 5.69766C40.7316 4.05766 41.9566 2.79266 43.5166 1.90266C45.0766 1.00266 46.8566 0.552655 48.8566 0.552655C50.8566 0.552655 52.6366 1.00266 54.1966 1.90266C55.7566 2.79266 56.9816 4.05766 57.8716 5.69766C58.7616 7.32766 59.2066 9.25266 59.2066 11.4727C59.2066 13.6927 58.7616 15.6227 57.8716 17.2627C56.9816 18.8927 55.7566 20.1577 54.1966 21.0577C52.6366 21.9477 50.8566 22.3927 48.8566 22.3927ZM48.8566 19.6327C50.4666 19.6327 51.8116 19.2727 52.8916 18.5527C53.9716 17.8227 54.7816 16.8427 55.3216 15.6127C55.8716 14.3727 56.1466 12.9927 56.1466 11.4727C56.1466 9.95266 55.8716 8.57766 55.3216 7.34766C54.7816 6.10766 53.9716 5.12766 52.8916 4.40766C51.8116 3.67766 50.4666 3.31266 48.8566 3.31266C47.2466 3.31266 45.9016 3.67766 44.8216 4.40766C43.7416 5.12766 42.9266 6.10766 42.3766 7.34766C41.8366 8.57766 41.5666 9.95266 41.5666 11.4727C41.5666 12.9927 41.8366 14.3727 42.3766 15.6127C42.9266 16.8427 43.7416 17.8227 44.8216 18.5527C45.9016 19.2727 47.2466 19.6327 48.8566 19.6327ZM70.7182 21.9727L64.7782 0.972655H67.7782L72.2182 18.2827L77.3482 1.39265H80.3482L85.4782 18.2827L89.9182 0.972655H92.9182L86.9782 21.9727H83.9482L78.8482 5.08266L73.7482 21.9727H70.7182ZM99.9469 21.9727V0.972655H112.757V3.55266H102.797V9.70266H110.717V12.2827H102.797V19.3927H113.027V21.9727H99.9469ZM121.058 21.9727V0.972655H127.868C129.328 0.972655 130.603 1.19766 131.693 1.64766C132.783 2.09766 133.628 2.79266 134.228 3.73266C134.828 4.67265 135.128 5.88266 135.128 7.36266C135.128 8.80266 134.813 10.0077 134.183 10.9777C133.563 11.9477 132.658 12.7127 131.468 13.2727L136.178 21.9727H132.698L128.438 13.7827C128.408 13.7827 128.383 13.7827 128.363 13.7827C128.343 13.7827 128.318 13.7827 128.288 13.7827H124.058V21.9727H121.058ZM124.058 11.2327H127.838C129.268 11.2327 130.343 10.8877 131.063 10.1977C131.793 9.50766 132.158 8.56266 132.158 7.36266C132.158 6.14266 131.793 5.19765 131.063 4.52765C130.343 3.85766 129.268 3.52266 127.838 3.52266H124.058V11.2327ZM143.634 21.9727V0.972655H156.444V3.55266H146.484V9.70266H154.404V12.2827H146.484V19.3927H156.714V21.9727H143.634ZM164.746 21.9727V0.972655H172.516C174.546 0.972655 176.346 1.38766 177.916 2.21766C179.486 3.04766 180.716 4.24766 181.606 5.81766C182.506 7.37766 182.956 9.26266 182.956 11.4727C182.956 13.6827 182.506 15.5727 181.606 17.1427C180.716 18.7027 179.486 19.8977 177.916 20.7277C176.346 21.5577 174.546 21.9727 172.516 21.9727H164.746ZM167.596 19.3927H172.516C174.116 19.3927 175.456 19.0627 176.536 18.4027C177.626 17.7327 178.446 16.8027 178.996 15.6127C179.556 14.4227 179.836 13.0427 179.836 11.4727C179.836 9.90266 179.556 8.52266 178.996 7.33266C178.446 6.14266 177.626 5.21766 176.536 4.55766C175.456 3.88766 174.116 3.55266 172.516 3.55266H167.596V19.3927ZM202.281 21.9727V0.972655H208.911C210.791 0.972655 212.266 1.39766 213.336 2.24766C214.406 3.08766 214.941 4.37266 214.941 6.10265C214.941 7.27266 214.686 8.30266 214.176 9.19266C213.666 10.0827 212.901 10.6627 211.881 10.9327L212.301 10.4527C213.761 10.6927 214.891 11.2777 215.691 12.2077C216.491 13.1277 216.891 14.3827 216.891 15.9727C216.891 17.8127 216.296 19.2727 215.106 20.3527C213.926 21.4327 212.291 21.9727 210.201 21.9727H202.281ZM205.131 19.3927H209.961C211.121 19.3927 212.046 19.1027 212.736 18.5227C213.426 17.9427 213.771 17.0627 213.771 15.8827C213.771 14.5627 213.416 13.6327 212.706 13.0927C212.006 12.5527 211.091 12.2827 209.961 12.2827H205.131V19.3927ZM205.131 9.70266H208.551C209.571 9.70266 210.401 9.49766 211.041 9.08766C211.681 8.67766 212.001 7.85266 212.001 6.61266C212.001 5.38266 211.681 4.56266 211.041 4.15266C210.401 3.73266 209.571 3.52266 208.551 3.52266H205.131V9.70266ZM228.541 21.9727V12.8827L221.131 0.972655H224.371L230.611 11.1727H229.291L235.531 0.972655H238.771L231.391 12.8827V21.9727H228.541Z" fill="#163B45"/>
</g>
</svg>
