<svg width="34" height="31" viewBox="0 0 34 31" fill="none" xmlns="http://www.w3.org/2000/svg">
<path d="M14.8254 27.9434C14.8254 28.4928 14.6625 29.0299 14.3573 29.4867C14.052 29.9435 13.6182 30.2995 13.1106 30.5097C12.6031 30.72 12.0446 30.775 11.5057 30.6678C10.9669 30.5606 10.4719 30.2961 10.0834 29.9076C9.69497 29.5191 9.43041 29.0242 9.32323 28.4853C9.21605 27.9465 9.27106 27.388 9.4813 26.8804C9.69155 26.3728 10.0476 25.939 10.5044 25.6338C10.9612 25.3285 11.4982 25.1656 12.0476 25.1656C12.7843 25.1656 13.4909 25.4583 14.0118 25.9792C14.5328 26.5002 14.8254 27.2067 14.8254 27.9434ZM26.4921 25.1656C25.9427 25.1656 25.4056 25.3285 24.9488 25.6338C24.492 25.939 24.136 26.3728 23.9257 26.8804C23.7155 27.388 23.6605 27.9465 23.7677 28.4853C23.8749 29.0242 24.1394 29.5191 24.5279 29.9076C24.9164 30.2961 25.4113 30.5606 25.9502 30.6678C26.489 30.775 27.0475 30.72 27.5551 30.5097C28.0627 30.2995 28.4965 29.9435 28.8017 29.4867C29.1069 29.0299 29.2699 28.4928 29.2699 27.9434C29.2699 27.2067 28.9772 26.5002 28.4563 25.9792C27.9353 25.4583 27.2288 25.1656 26.4921 25.1656ZM33.6407 8.43369L29.8504 20.7531C29.6084 21.5498 29.116 22.2473 28.4462 22.7419C27.7764 23.2366 26.965 23.502 26.1324 23.499H12.4546C11.61 23.4962 10.7891 23.2199 10.1148 22.7113C9.44044 22.2028 8.94909 21.4894 8.7143 20.6781L3.96569 4.05452H2.60319C2.16116 4.05452 1.73724 3.87893 1.42468 3.56637C1.11212 3.25381 0.936523 2.82989 0.936523 2.38786C0.936523 1.94583 1.11212 1.52191 1.42468 1.20935C1.73724 0.896786 2.16116 0.721191 2.60319 0.721191H4.38375C4.987 0.723055 5.57339 0.920472 6.05494 1.28383C6.53649 1.64718 6.88724 2.15688 7.05458 2.73647L8.06708 6.27675H32.0476C32.3085 6.27673 32.5657 6.33793 32.7985 6.45542C33.0314 6.57292 33.2335 6.74343 33.3884 6.95325C33.5434 7.16306 33.6469 7.40632 33.6907 7.66344C33.7346 7.92057 33.7174 8.1844 33.6407 8.43369ZM29.7907 9.61008H9.01847L11.9199 19.7629C11.9531 19.879 12.0232 19.9812 12.1197 20.0538C12.2162 20.1265 12.3338 20.1658 12.4546 20.1656H26.1324C26.2513 20.1659 26.3671 20.128 26.4629 20.0574C26.5586 19.9869 26.6292 19.8876 26.6643 19.774L29.7907 9.61008Z" fill="currentColor"/>
</svg>
