<?xml version="1.0" encoding="utf-8"?>
<!-- Generator: Adobe Illustrator 24.3.0, SVG Export Plug-In . SVG Version: 6.00 Build 0)  -->
<svg version="1.1" id="Layer_1" xmlns="http://www.w3.org/2000/svg" xmlns:xlink="http://www.w3.org/1999/xlink" x="0px" y="0px" viewBox="0 0 341.3 339.8" style="enable-background:new 0 0 341.3 339.8;" xml:space="preserve">
<path d="M124,120c9,4,17,9,26,14c11,6,15,18,10,29c-4,12-16,17-28,14c-11-3-21-6-31-10l-1,2c21,17,41,34,62,52c3,2,4,2,6-1
	c41-49,82-97,123-146c3-4,4-6,0-10c-25-20-49-40-73-60c-3-3-4-3-7,0c-10,13-21,26-32,39c-19,22-38,45-57,67C118,115,118,117,124,120
	z M188,77c20,1,37,18,37,37s-14,33-33,32c-20,0-37-17-37-36S170,77,188,77z M248,312c2,3,4,3,7,2c23-2,46-4,71-6c-8-19-14-38-24-55
	c-7-13-18-23-35-24c-26-3-52-1-78-1c-8,0-13,6-12,13c0,7,5,12,13,13h30c4,0,7,0,7,5c1,4-3,4-7,4h-50c-10,0-19-3-27-9
	c-12-9-24-17-37-25c-7-5-15-4-19,2c-6,6-5,14,2,21l39,33c12,11,26,17,43,17c17-1,35,0,52,0C233,302,242,304,248,312z M151,159
	c2-8-1-13-8-17c-14-7-27-15-40-23c-5-2-8-5-6-11c1-5,5-6,10-6c4,0,8,2,10-2c10-11,20-23,31-36c-6-1-10-2-15-3c-17-3-33-7-51-2
	c-16,5-31,10-48,13c-4,0-4,3-4,5v62c7-2,13-3,18-5c8-3,15-1,20,6c4,4,8,8,14,10c17,6,34,12,51,17C142,170,149,166,151,159z M331,318
	c-27,3-54,6-81,8c-6,0-5,4-5,7c0,4,2,5,5,5h71c15,0,16,0,14-16C335,320,335,318,331,318z M12,64H5c-4-1-5,1-5,6c3,26,5,52,7,78
	c1,5,3,5,7,5c5,1,6-2,6-6c-1-13,0-25,0-38s-1-25,0-38C20,65,18,63,12,64z M170,113c2,4,5,7,10,7s8-2,12-4c2-1,4-2,6,0s0,4-2,6
	c-1,1-2,2-4,3s-5,2-2,6c2,3,4,4,8,2c1-2,3-5,6-3c2,2,3,2,5,0c2-3,2-4,0-7c-2-1-1-4,0-5c0-13-8-18-20-12c-3,1-6,5-8,2c-2-4,2-6,4-8
	c2-1,4-1,3-4c-4-10-11,3-15-2c-2-1-5,4-5,4C173,102,168,108,170,113z" fill="currentColor"/>
</svg>
