<svg width="21" height="21" viewBox="0 0 21 21" fill="currentColor" xmlns="http://www.w3.org/2000/svg">
<path d="M7.875 20.2969H2.875C1.77043 20.2969 0.875 19.4014 0.875 18.2969V11.2969C0.875 10.1923 1.77043 9.29688 2.875 9.29688H7.875C8.97957 9.29688 9.875 10.1923 9.875 11.2969V18.2969C9.875 19.4014 8.97957 20.2969 7.875 20.2969Z" fill="currentColor"/>
<path d="M18.875 20.2969H13.875C12.7704 20.2969 11.875 19.4014 11.875 18.2969V15.2969C11.875 14.1923 12.7704 13.2969 13.875 13.2969H18.875C19.9796 13.2969 20.875 14.1923 20.875 15.2969V18.2969C20.875 19.4014 19.9796 20.2969 18.875 20.2969Z" fill="currentColor"/>
<path d="M7.875 7.29688H2.875C1.77043 7.29688 0.875 6.40144 0.875 5.29688V2.29688C0.875 1.19231 1.77043 0.296875 2.875 0.296875H7.875C8.97957 0.296875 9.875 1.19231 9.875 2.29688V5.29688C9.875 6.40144 8.97957 7.29688 7.875 7.29688Z" fill="currentColor"/>
<path d="M18.875 11.2969H13.875C12.7704 11.2969 11.875 10.4014 11.875 9.29688V2.29688C11.875 1.19231 12.7704 0.296876 13.875 0.296876H18.875C19.9796 0.296876 20.875 1.19231 20.875 2.29688V9.29688C20.875 10.4014 19.9796 11.2969 18.875 11.2969Z" fill="currentColor"/>
</svg>
