<svg width="21" height="21" viewBox="0 0 21 21" fill="currentColor" xmlns="http://www.w3.org/2000/svg">
<path d="M6.55398 1.70998C6.55398 1.30088 6.22233 0.969238 5.81324 0.969238C5.40414 0.969238 5.0725 1.30088 5.0725 1.70998V3.26974C3.65094 3.38357 2.7177 3.66294 2.03207 4.34857C1.34644 5.0342 1.06707 5.96743 0.953247 7.38899H20.5497C20.4359 5.96743 20.1565 5.0342 19.4709 4.34857C18.7853 3.66294 17.852 3.38357 16.4305 3.26974V1.70998C16.4305 1.30088 16.0989 0.969238 15.6898 0.969238C15.2807 0.969238 14.949 1.30088 14.949 1.70998V3.2042C14.292 3.19146 13.5555 3.19146 12.7268 3.19146H8.7762C7.94753 3.19146 7.21103 3.19146 6.55398 3.2042V1.70998Z" fill="currentColor"/>
<path fill-rule="evenodd" clip-rule="evenodd" d="M0.875 11.0928C0.875 10.2642 0.875 9.52769 0.887741 8.87061H20.6153C20.6281 9.52769 20.6281 10.2642 20.6281 11.0928V13.0681C20.6281 16.7928 20.6281 18.6552 19.4709 19.8122C18.3139 20.9694 16.4515 20.9694 12.7269 20.9694H8.77623C5.05155 20.9694 3.18922 20.9694 2.03211 19.8122C0.875 18.6552 0.875 16.7928 0.875 13.0681V11.0928ZM15.6898 13.0681C16.2353 13.0681 16.6775 12.626 16.6775 12.0805C16.6775 11.535 16.2353 11.0928 15.6898 11.0928C15.1443 11.0928 14.7022 11.535 14.7022 12.0805C14.7022 12.626 15.1443 13.0681 15.6898 13.0681ZM15.6898 17.0188C16.2353 17.0188 16.6775 16.5766 16.6775 16.0311C16.6775 15.4856 16.2353 15.0434 15.6898 15.0434C15.1443 15.0434 14.7022 15.4856 14.7022 16.0311C14.7022 16.5766 15.1443 17.0188 15.6898 17.0188ZM11.7392 12.0805C11.7392 12.626 11.297 13.0681 10.7515 13.0681C10.2061 13.0681 9.76389 12.626 9.76389 12.0805C9.76389 11.535 10.2061 11.0928 10.7515 11.0928C11.297 11.0928 11.7392 11.535 11.7392 12.0805ZM11.7392 16.0311C11.7392 16.5766 11.297 17.0188 10.7515 17.0188C10.2061 17.0188 9.76389 16.5766 9.76389 16.0311C9.76389 15.4856 10.2061 15.0434 10.7515 15.0434C11.297 15.0434 11.7392 15.4856 11.7392 16.0311ZM5.81327 13.0681C6.35873 13.0681 6.80093 12.626 6.80093 12.0805C6.80093 11.535 6.35873 11.0928 5.81327 11.0928C5.26781 11.0928 4.82562 11.535 4.82562 12.0805C4.82562 12.626 5.26781 13.0681 5.81327 13.0681ZM5.81327 17.0188C6.35873 17.0188 6.80093 16.5766 6.80093 16.0311C6.80093 15.4856 6.35873 15.0434 5.81327 15.0434C5.26781 15.0434 4.82562 15.4856 4.82562 16.0311C4.82562 16.5766 5.26781 17.0188 5.81327 17.0188Z" fill="currentColor"/>
</svg>
