<svg width="172" height="125" viewBox="0 0 172 125" fill="none" xmlns="http://www.w3.org/2000/svg">
<path d="M154.121 0.00683594C158.641 0.00683594 162.977 1.80269 166.174 4.99934C169.37 8.19598 171.166 12.5316 171.166 17.0523V34.0978H0.711426V17.0523C0.711426 12.5316 2.50728 8.19598 5.70393 4.99934C8.90057 1.80269 13.2362 0.00683594 17.7569 0.00683594H154.121Z" fill="currentColor"/>
<path fill-rule="evenodd" clip-rule="evenodd" d="M0.711426 45.4614V107.961C0.711426 112.482 2.50728 116.818 5.70393 120.014C8.90057 123.211 13.2362 125.007 17.7569 125.007H154.121C158.641 125.007 162.977 123.211 166.174 120.014C169.37 116.818 171.166 112.482 171.166 107.961V45.4614H0.711426ZM23.4387 90.916H91.6206V79.5524H23.4387V90.916ZM148.439 90.916H114.348V79.5524H148.439V90.916Z" fill="currentColor"/>
</svg>
