<svg xmlns="http://www.w3.org/2000/svg" width="104" height="189" viewBox="0 0 104 189" fill="none">
  <path d="M103.894 120.643C103.894 131.995 100.203 141.77 92.8207 149.968C85.4383 158.167 75.8486 163.231 64.0516 165.16V184.636C64.0516 185.675 63.7177 186.528 63.05 187.196C62.3822 187.863 61.529 188.197 60.4903 188.197H45.4658C44.5013 188.197 43.6666 187.845 42.9617 187.14C42.2569 186.435 41.9044 185.6 41.9044 184.636V165.16C37.0076 164.492 32.2776 163.342 27.7146 161.71C23.1517 160.077 19.3863 158.427 16.4185 156.757C13.4507 155.088 10.7054 153.307 8.18282 151.415C5.66019 149.523 3.93516 148.132 3.00772 147.242C2.08028 146.351 1.43108 145.684 1.0601 145.238C-0.201212 143.68 -0.275407 142.159 0.837518 140.675L12.3006 125.651C12.82 124.909 13.6732 124.464 14.8604 124.315C15.9733 124.167 16.8636 124.501 17.5314 125.317L17.754 125.54C26.138 132.885 35.1527 137.522 44.798 139.451C47.5432 140.045 50.2885 140.342 53.0337 140.342C59.0435 140.342 64.3299 138.746 68.8928 135.556C73.4558 132.366 75.7373 127.84 75.7373 121.978C75.7373 119.901 75.1809 117.935 74.0679 116.08C72.955 114.225 71.7123 112.667 70.3396 111.405C68.967 110.144 66.7968 108.753 63.829 107.232C60.8612 105.711 58.4128 104.524 56.4837 103.671C54.5547 102.817 51.5869 101.612 47.5803 100.054C44.6867 98.8665 42.4052 97.9391 40.7359 97.2713C39.0665 96.6036 36.785 95.6205 33.8914 94.3221C30.9978 93.0237 28.6792 91.8737 26.9356 90.872C25.192 89.8704 23.096 88.5534 20.6476 86.9212C18.1991 85.2889 16.2144 83.7122 14.6934 82.1912C13.1724 80.6702 11.5587 78.8525 9.85221 76.7379C8.14572 74.6233 6.82876 72.4717 5.90132 70.2829C4.97389 68.0942 4.19484 65.6272 3.56418 62.882C2.93353 60.1368 2.6182 57.2432 2.6182 54.2012C2.6182 43.9623 6.25375 34.9847 13.5249 27.2684C20.796 19.5521 30.2558 14.5811 41.9044 12.3552V-7.67741C41.9044 -8.64195 42.2569 -9.47664 42.9617 -10.1815C43.6666 -10.8863 44.5013 -11.2388 45.4658 -11.2388H60.4903C61.529 -11.2388 62.3822 -10.9049 63.05 -10.2371C63.7177 -9.56938 64.0516 -8.71614 64.0516 -7.67741V11.9101C68.2807 12.3552 72.38 13.2085 76.3494 14.4698C80.3189 15.7311 83.5463 16.9739 86.0319 18.1981C88.5174 19.4223 90.8731 20.8134 93.099 22.3715C95.3248 23.9296 96.7716 25.0055 97.4394 25.599C98.1071 26.1926 98.6636 26.7119 99.1087 27.1571C100.37 28.4926 100.556 29.9023 99.6652 31.3862L90.6505 47.6349C90.057 48.7478 89.2037 49.3414 88.0908 49.4156C87.0521 49.6382 86.0504 49.3785 85.0859 48.6366C84.8633 48.414 84.3254 47.9688 83.4722 47.301C82.6189 46.6333 81.1721 45.6502 79.1318 44.3518C77.0914 43.0534 74.9212 41.8663 72.6211 40.7904C70.3211 39.7146 67.5573 38.7501 64.3299 37.8968C61.1024 37.0436 57.9305 36.617 54.8144 36.617C47.7658 36.617 42.0157 38.2122 37.564 41.4025C33.1123 44.5929 30.8865 48.7108 30.8865 53.756C30.8865 55.6851 31.2018 57.4658 31.8325 59.098C32.4631 60.7303 33.5575 62.2699 35.1156 63.7167C36.6737 65.1635 38.139 66.3877 39.5116 67.3893C40.8843 68.391 42.9617 69.541 45.744 70.8394C48.5263 72.1378 50.7707 73.1394 52.4772 73.8443C54.1837 74.5491 56.7805 75.5693 60.2677 76.9048C64.2 78.3887 67.2049 79.5573 69.2824 80.4105C71.3598 81.2638 74.1792 82.5622 77.7406 84.3058C81.302 86.0494 84.1028 87.626 86.1432 89.0357C88.1835 90.4454 90.4836 92.3003 93.0433 94.6003C95.603 96.9004 97.5692 99.2561 98.9418 101.667C100.314 104.079 101.483 106.917 102.448 110.181C103.412 113.446 103.894 116.933 103.894 120.643Z" fill="currentColor"/>
</svg>