<svg width="30" height="21" viewBox="0 0 30 21" fill="currentColor" xmlns="http://www.w3.org/2000/svg">
<path d="M14.6749 0.640625C12.1636 0.640625 10.1278 3.01747 10.1278 5.94946C10.1278 7.98289 11.107 9.74891 12.5449 10.6406L10.8775 11.4134L6.44019 13.4714C6.01153 13.6857 5.79759 14.0492 5.79759 14.5636V19.4505C5.83285 20.0615 6.19945 20.631 6.79382 20.6406H22.58C23.2586 20.5816 23.6018 20.0351 23.6085 19.4505V14.5636C23.6085 14.0492 23.3946 13.6857 22.9659 13.4714L18.6893 11.4134L16.912 10.5714C18.2909 9.65961 19.2221 7.93176 19.2221 5.94949C19.222 3.01747 17.1862 0.640625 14.6749 0.640625ZM7.34039 2.5075C6.25966 2.54854 5.40316 3.01618 4.75244 3.76131C4.03266 4.65844 3.68176 5.72359 3.67498 6.78319C3.71918 8.35005 4.42025 9.83336 5.66833 10.6092L0.685417 12.9248C0.342462 13.0534 0.171143 13.3534 0.171143 13.825V17.7471C0.197922 18.2672 0.467999 18.7044 0.9744 18.7119H4.28619V14.5636C4.34098 13.4546 4.8618 12.5581 5.79759 12.1207L9.10848 10.5456C9.36567 10.3955 9.61225 10.1915 9.84802 9.93435C8.4829 7.82807 8.29333 5.3053 9.17311 3.08641C8.60091 2.73621 7.95784 2.51117 7.34039 2.5075ZM22.1294 2.5075C21.4227 2.5223 20.7695 2.78256 20.233 3.1501C21.0888 5.38909 20.8527 7.91341 19.5895 9.86971C19.8681 10.1912 20.1582 10.4378 20.4583 10.6093L23.6408 12.1207C24.6104 12.6524 25.1103 13.5568 25.1199 14.5636V18.7119H28.5277C29.0882 18.6635 29.327 18.2165 29.3319 17.7471V13.825C29.3319 13.3963 29.1606 13.0963 28.8176 12.9248L23.8984 10.5769C25.1742 9.6363 25.8147 8.22658 25.8271 6.78319C25.7932 5.64077 25.4442 4.58 24.7497 3.76131C24.0239 2.974 23.1237 2.51583 22.1294 2.5075Z" fill="currentColor"/>
</svg>
