<svg width="159" height="131" viewBox="0 0 159 131" fill="none" xmlns="http://www.w3.org/2000/svg">
<path fill-rule="evenodd" clip-rule="evenodd" d="M148.242 51.9858C148.242 40.8482 148.242 35.2794 145.569 31.2791C144.412 29.5473 142.925 28.0604 141.193 26.9032C137.694 24.5653 132.996 24.2723 124.42 24.2356C124.452 26.5464 124.452 28.961 124.452 31.4508V32.1604V42.0731H132.382C135.666 42.0731 138.329 44.736 138.329 48.0207C138.329 51.3054 135.666 53.9683 132.382 53.9683H124.452V65.8635H132.382C135.666 65.8635 138.329 68.5264 138.329 71.8111C138.329 75.0957 135.666 77.7587 132.382 77.7587H124.452V89.6539H132.382C135.666 89.6539 138.329 92.3168 138.329 95.6014C138.329 98.8861 135.666 101.549 132.382 101.549H124.452V153.095H112.556V32.1604C112.556 17.2072 112.556 9.73064 107.911 5.08533C103.266 0.439941 95.789 0.439941 80.8359 0.439941H64.9757C50.0225 0.439941 42.5459 0.439941 37.9006 5.08533C33.2552 9.73064 33.2552 17.2072 33.2552 32.1604V153.095H21.36V101.549H13.4299C10.1451 101.549 7.48227 98.8861 7.48227 95.6014C7.48227 92.3168 10.1451 89.6539 13.4299 89.6539H21.36V77.7587H13.4299C10.1451 77.7587 7.48227 75.0957 7.48227 71.8111C7.48227 68.5264 10.1451 65.8635 13.4299 65.8635H21.36V53.9683H13.4299C10.1451 53.9683 7.48227 51.3054 7.48227 48.0207C7.48227 44.736 10.1451 42.0731 13.4299 42.0731H21.36V32.1604L21.3599 31.4507C21.3597 28.961 21.3594 26.5464 21.3919 24.2356C12.8162 24.2723 8.11731 24.5653 4.61838 26.9032C2.8866 28.0604 1.3997 29.5473 0.242537 31.2791C-2.43039 35.2794 -2.43039 40.8482 -2.43039 51.9858V153.095H-6.39545C-9.68019 153.095 -12.343 155.758 -12.343 159.042C-12.343 162.327 -9.68019 164.99 -6.39545 164.99H152.207C155.492 164.99 158.155 162.327 158.155 159.042C158.155 155.758 155.492 153.095 152.207 153.095H148.242V51.9858ZM72.9058 18.2827C76.1905 18.2827 78.8534 20.9456 78.8534 24.2303V34.143H88.7661C92.0507 34.143 94.7137 36.8058 94.7137 40.0906C94.7137 43.3753 92.0507 46.0382 88.7661 46.0382H78.8534V55.9508C78.8534 59.2356 76.1905 61.8984 72.9058 61.8984C69.6211 61.8984 66.9582 59.2356 66.9582 55.9508V46.0382H57.0456C53.7608 46.0382 51.098 43.3753 51.098 40.0906C51.098 36.8058 53.7608 34.143 57.0456 34.143H66.9582V24.2303C66.9582 20.9456 69.6211 18.2827 72.9058 18.2827ZM51.098 79.7412C51.098 76.4565 53.7608 73.7936 57.0456 73.7936H88.7661C92.0507 73.7936 94.7137 76.4565 94.7137 79.7412C94.7137 83.0259 92.0507 85.6888 88.7661 85.6888H57.0456C53.7608 85.6888 51.098 83.0259 51.098 79.7412ZM51.098 103.532C51.098 100.247 53.7608 97.584 57.0456 97.584H88.7661C92.0507 97.584 94.7137 100.247 94.7137 103.532C94.7137 106.816 92.0507 109.479 88.7661 109.479H57.0456C53.7608 109.479 51.098 106.816 51.098 103.532ZM72.9058 129.304C76.1905 129.304 78.8534 131.967 78.8534 135.252V153.095H66.9582V135.252C66.9582 131.967 69.6211 129.304 72.9058 129.304Z" fill="currentColor"/>
</svg>
