<?xml version="1.0" encoding="utf-8"?>
<!-- Generator: Adobe Illustrator 24.3.0, SVG Export Plug-In . SVG Version: 6.00 Build 0)  -->
<svg version="1.1" id="Layer_1" xmlns="http://www.w3.org/2000/svg" xmlns:xlink="http://www.w3.org/1999/xlink" x="0px" y="0px"
	 viewBox="0 0 720 724" style="enable-background:new 0 0 720 724;" xml:space="preserve">
<style type="text/css">
	.st0{fill:none;stroke:#292D32;stroke-width:50;stroke-linecap:round;stroke-linejoin:round;stroke-miterlimit:133.3333;}
</style>
<path class="st0" d="M259,695.3h200c166.7,0,233.3-66.7,233.3-233.3V262c0-166.7-66.7-233.3-233.3-233.3H259
	C92.3,28.7,25.7,95.3,25.7,262v200C25.7,628.7,92.3,695.3,259,695.3z"/>
<path class="st0" d="M25.7,385.3l200-0.7c25,0,53,19,62.3,42.3l38,96c8.7,21.7,22.3,21.7,31,0l76.3-193.7c7.3-18.7,21-19.3,30.3-1.7
	l34.7,65.7c10.3,19.7,37,35.7,59,35.7h135.3"/>
</svg>
