<svg width="18" height="18" viewBox="0 0 18 18" fill="none" xmlns="http://www.w3.org/2000/svg">
<path d="M1.86432 14.2666C1.86432 13.272 2.25941 12.3182 2.96267 11.615C3.66593 10.9117 4.61976 10.5166 5.61432 10.5166H13.1143C14.1089 10.5166 15.0627 10.9117 15.766 11.615C16.4692 12.3182 16.8643 13.272 16.8643 14.2666C16.8643 14.7639 16.6668 15.2408 16.3151 15.5924C15.9635 15.9441 15.4866 16.1416 14.9893 16.1416H3.73932C3.24204 16.1416 2.76512 15.9441 2.41349 15.5924C2.06186 15.2408 1.86432 14.7639 1.86432 14.2666Z" stroke="#163B45" stroke-width="2" stroke-linejoin="round"/>
<path d="M9.36432 6.7666C10.9176 6.7666 12.1768 5.5074 12.1768 3.9541C12.1768 2.4008 10.9176 1.1416 9.36432 1.1416C7.81102 1.1416 6.55182 2.4008 6.55182 3.9541C6.55182 5.5074 7.81102 6.7666 9.36432 6.7666Z" stroke="#163B45" stroke-width="2"/>
</svg>
