<svg width="25" height="21" viewBox="0 0 25 21" fill="currentColor" xmlns="http://www.w3.org/2000/svg">
<path d="M13.8164 12.3985C16.4154 12.3985 18.5223 14.5054 18.5223 17.1044V18.8691C18.5223 19.8437 17.7322 20.6338 16.7576 20.6338H2.63995C1.66533 20.6338 0.875244 19.8437 0.875244 18.8691V17.1044C0.875244 14.5054 2.98214 12.3985 5.58113 12.3985H13.8164ZM20.8752 12.3987C22.8245 12.3987 24.4047 13.979 24.4047 15.9281V17.6928C24.4047 18.6676 23.6145 19.4576 22.6399 19.4576H20.8752V17.1044C20.8752 15.1803 19.9515 13.472 18.5232 12.3987H20.8752ZM9.69877 0.633789C12.6227 0.633789 14.9929 3.00405 14.9929 5.92791C14.9929 8.85177 12.6227 11.222 9.69877 11.222C6.77491 11.222 4.40466 8.85177 4.40466 5.92791C4.40466 3.00405 6.77491 0.633789 9.69877 0.633789ZM19.6988 4.1632C21.6481 4.1632 23.2282 5.74338 23.2282 7.69261C23.2282 9.64191 21.6481 11.222 19.6988 11.222C17.7495 11.222 16.1694 9.64191 16.1694 7.69261C16.1694 5.74338 17.7495 4.1632 19.6988 4.1632Z" fill="currentColor"/>
</svg>
