<svg width="5" height="15" viewBox="0 0 5 15" fill="none" xmlns="http://www.w3.org/2000/svg">
<path d="M2.61621 14.6611C3.72078 14.6611 4.61621 13.7657 4.61621 12.6611C4.61621 11.5566 3.72078 10.6611 2.61621 10.6611C1.51164 10.6611 0.616211 11.5566 0.616211 12.6611C0.616211 13.7657 1.51164 14.6611 2.61621 14.6611Z" fill="currentColor"/>
<path d="M2.61621 9.66113C3.72078 9.66113 4.61621 8.7657 4.61621 7.66113C4.61621 6.55656 3.72078 5.66113 2.61621 5.66113C1.51164 5.66113 0.616211 6.55656 0.616211 7.66113C0.616211 8.7657 1.51164 9.66113 2.61621 9.66113Z" fill="currentColor"/>
<path d="M2.61621 4.66113C3.72078 4.66113 4.61621 3.7657 4.61621 2.66113C4.61621 1.55656 3.72078 0.661133 2.61621 0.661133C1.51164 0.661133 0.616211 1.55656 0.616211 2.66113C0.616211 3.7657 1.51164 4.66113 2.61621 4.66113Z" fill="currentColor"/>
</svg>
