<?xml version="1.0" encoding="utf-8"?>
<!-- Generator: Adobe Illustrator 24.3.0, SVG Export Plug-In . SVG Version: 6.00 Build 0)  -->
<svg version="1.1" id="Layer_1" xmlns="http://www.w3.org/2000/svg" xmlns:xlink="http://www.w3.org/1999/xlink" x="0px" y="0px"
	 viewBox="0 0 700 700" xml:space="preserve">
<style type="text/css">
	.st0{fill:#263238;}
	.st1{fill:#455A64;}
	.st2{opacity:0.3;}
	.st3{fill:#8AC186;}
	.st4{fill:#FFBF9D;}
	.st5{fill:#FF9A6C;}
	.st6{fill:#E0E0E0;}
	.st7{fill:#FFFFFF;}
	.st8{fill:#AE7461;}
	.st9{fill:#6F4439;}
	.st10{opacity:0.6;}
</style>
<g id="freepik--Floor--inject-92">
	<path class="st0" d="M664.5,315c0,0.1-147.6,0.3-329.5,0.3S5.4,315.2,5.4,315s147.6-0.3,329.6-0.3S664.5,314.9,664.5,315z"/>
</g>
<g id="freepik--plant-2--inject-92">
	<path class="st1" d="M653.7,154.6c-8.4,4.3-14.8,11.8-19.4,20s-7.6,17.2-10.5,26.2l-2.6,46.2c9.7-16.6,17.5-36,19.7-55.1l-6.5-0.6
		c4.3-0.7,8-3.8,10.3-7.5s3.5-8,4.7-12.3l-7.9,1.2C647.7,168.4,652.1,162,653.7,154.6z"/>
	<g class="st2">
		<path d="M653.7,154.6c-8.4,4.3-14.8,11.8-19.4,20s-7.6,17.2-10.5,26.2l-2.6,46.2c9.7-16.6,17.5-36,19.7-55.1l-6.5-0.6
			c4.3-0.7,8-3.8,10.3-7.5s3.5-8,4.7-12.3l-7.9,1.2C647.7,168.4,652.1,162,653.7,154.6z"/>
	</g>
	<path class="st1" d="M619.8,257.8c0,0-21.1-25.3-20.8-49.4h8.5c0,0-9.3-6.1-8.5-9.5s1-16.3,1-16.3l7.8,2c0,0-5.8-2.9-6.6-7.6
		s1.7-26.1,1.7-26.1s9.5,10,12.4,20.2s10.6,22.2,8.4,53.4S619.8,257.8,619.8,257.8z"/>
	<path class="st1" d="M630.5,260.2c0,0,22.9-15.2,28-34.7l-6.9-1.8c0,0,8.8-2.9,8.9-5.8s2.8-13.4,2.8-13.4l-6.7-0.1
		c0,0,5.3-1.1,7-4.6s4.4-21.4,4.4-21.4s-9.8,6-14.4,13.5s-13.4,15.5-18.4,41.1S630.5,260.2,630.5,260.2z"/>
	<path class="st0" d="M608.6,172.9c0,0.1,0.1,0.2,0.1,0.3l0.2,0.8c0.2,0.7,0.4,1.7,0.7,3c0.6,2.6,1.4,6.4,2.3,11.1
		s1.9,10.3,2.8,16.5s1.9,13.1,2.8,20.4s1.5,14.2,2,20.5s0.8,12,1,16.7s0.3,8.6,0.3,11.3c0,1.3,0,2.3,0,3.1v0.8c0,0.1,0,0.2,0,0.3
		c0-0.1,0-0.2,0-0.3c0-0.2,0-0.5,0-0.8c0-0.8-0.1-1.8-0.1-3.1c-0.1-2.7-0.2-6.5-0.5-11.3s-0.6-10.4-1.1-16.7s-1.2-13.2-2-20.4
		s-1.8-14.1-2.7-20.3s-1.9-11.8-2.7-16.5s-1.6-8.5-2.1-11.1c-0.2-1.3-0.4-2.3-0.6-3c-0.1-0.3-0.1-0.6-0.1-0.8
		C608.7,173.1,608.6,173,608.6,172.9z"/>
	<path class="st1" d="M616.8,273.3c0,0-19.3-21.9-25.3-35.2l4.5-1.9c-3.3,0.5-6.7-0.9-9.2-3c-2.4-2.3-4.5-4.9-6.2-7.8l6-1
		c-5.5-1.6-10.1-5.2-13-10.1c7,1.2,13.4,5,18.7,9.9c4.2,4,8,8.4,11.3,13.1c1.7,2.3,3.2,4.7,4.4,7.2
		C611.1,251.2,616.8,265.2,616.8,273.3z"/>
	<path class="st0" d="M658.8,191.1c0,0,0,0.1-0.1,0.2s-0.2,0.4-0.3,0.6l-1.2,2.4c-1,2.1-2.5,5.2-4.3,9c-3.5,7.6-8.2,18.2-12.8,30.2
		s-8.3,22.9-10.8,31c-1.2,4-2.2,7.3-2.9,9.5l-0.8,2.6l-0.2,0.7c0,0.1,0,0.2-0.1,0.2c0-0.1,0-0.2,0-0.2c0-0.2,0.1-0.4,0.2-0.7
		c0.2-0.6,0.4-1.5,0.7-2.6c0.6-2.3,1.5-5.5,2.7-9.6c2.4-8,6-19.1,10.7-31s9.4-22.6,13-30.1c1.8-3.8,3.3-6.8,4.4-8.9
		c0.5-1,1-1.8,1.2-2.4l0.3-0.6C658.6,191.3,658.7,191.2,658.8,191.1z"/>
	<path class="st0" d="M618.5,282.6c-0.1-0.5-0.3-1-0.3-1.6c-0.2-1-0.4-2.5-0.8-4.3c-1.8-9.4-5.2-18.3-10-26.6
		c-0.9-1.6-1.7-2.9-2.2-3.7c-0.3-0.4-0.6-0.9-0.8-1.4c0.4,0.4,0.7,0.8,1,1.3c0.6,0.8,1.4,2.1,2.4,3.6c2.4,4.1,4.5,8.4,6.2,12.9
		c1.7,4.5,3,9.1,3.8,13.8c0.3,1.8,0.5,3.3,0.6,4.3C618.4,281.6,618.5,282.1,618.5,282.6z"/>
	<rect x="601.7" y="277.5" class="st3" width="42.3" height="8.6"/>
	<polygon class="st3" points="605.7,286.1 610.3,315.2 635.9,315.2 640.1,286.1 	"/>
	<path class="st0" d="M641.4,286.1c0,0.1-8,0.3-17.9,0.3s-17.9-0.1-17.9-0.3s8-0.3,17.9-0.3S641.4,286,641.4,286.1z"/>
</g>
<g id="freepik--plant-1--inject-92">
	<path class="st0" d="M49,289.3c0,0-3.8-26-3.5-41.1c0.3-15.1,0-32.1,0-32.1h1.7c0,0-1.2,30,0.1,48.1s4.7,25.1,4.7,25.1H49"/>
	<path class="st1" d="M60.3,186.9c-0.3-0.9-0.8-1.7-1.6-2.3c-1.2-0.6-2.6-0.6-3.8,0c-5.3,1.9-9.9,11.7-12,16.8l7,23.5
		C62.4,213.3,64.6,198,60.3,186.9z"/>
	<path class="st0" d="M58.3,185.6c0,0.1,0,0.2-0.1,0.3l-0.3,0.9c-0.3,0.7-0.7,1.8-1.2,3.1c-1,2.7-2.3,6.4-3.5,10.6s-2,8.1-2.5,10.9
		c-0.2,1.4-0.4,2.5-0.6,3.4c-0.1,0.4-0.1,0.7-0.2,0.9c0,0.1,0,0.2-0.1,0.3c0-0.1,0-0.2,0-0.3c0-0.2,0.1-0.5,0.1-0.9
		c0.1-0.8,0.2-2,0.5-3.4c1.2-7.4,3.2-14.6,6-21.5c0.5-1.3,1-2.4,1.3-3.1l0.4-0.8C58.2,185.8,58.2,185.7,58.3,185.6z"/>
	<path class="st1" d="M46.7,230.6c-6.5-3.7-10.5-10.5-10.8-17.9c-0.3-5.2,1.3-10.3,3.2-15.2c0.1-0.4,0.4-0.8,0.7-1.1
		c0.6-0.2,1.3-0.1,1.8,0.3c4.8,2.7,7.6,7.9,9.2,13.1c1.1,3.5,1.5,7.2,1.1,10.8C51.3,224.4,49.5,227.9,46.7,230.6"/>
	<path class="st0" d="M46.7,230.6c0-0.1,0-0.2,0-0.3c0-0.2,0-0.5,0-0.9c0-0.8,0-1.9-0.1-3.3c-0.2-3.6-0.6-7.3-1.2-10.9
		c-0.7-4.2-1.6-8-2.3-10.7l-0.8-3.2l-0.2-0.9c0-0.1,0-0.2,0-0.3c0,0.1,0.1,0.2,0.1,0.3c0.1,0.2,0.2,0.5,0.3,0.9
		c0.2,0.8,0.5,1.9,0.9,3.2c0.7,2.7,1.6,6.5,2.3,10.7c0.6,3.6,1,7.2,1.1,10.9c0,1.4,0,2.5,0,3.3c0,0.4,0,0.7,0,0.9
		C46.9,230.4,46.8,230.5,46.7,230.6z"/>
	<g class="st2">
		<path d="M46.7,230.6c-6.5-3.7-10.5-10.5-10.8-17.9c-0.3-5.2,1.3-10.3,3.2-15.2c0.1-0.4,0.4-0.8,0.7-1.1c0.6-0.2,1.3-0.1,1.8,0.3
			c4.8,2.7,7.6,7.9,9.2,13.1c1.1,3.5,1.5,7.2,1.1,10.8C51.3,224.4,49.5,227.9,46.7,230.6"/>
	</g>
	<path class="st1" d="M54.1,270.3c6.4,1.4,11.7,6,18,8.2c4.1,1.5,8.8,2,12,4.9c-0.8-2-2.7-3.3-4.5-4.5c-5.1-3.2-10.6-5.8-16.3-7.8
		c-2.9-1-6.1-1.9-9.1-1"/>
	<path class="st1" d="M44.8,276.1c-8.1-0.1-16.5-7-24.6-7.4C28.6,266,40.7,268.2,44.8,276.1"/>
	<path class="st1" d="M47.9,256.7c4.2-1.4,8.6-1.7,12.9-0.9c4.3,0.8,8.5,1.9,12.6,3.4c-0.4-2.8-2.7-4.9-4.8-6.8
		c-1.5-1.5-3.2-2.8-5-3.9c-1.8-1.1-3.9-1.7-6.1-1.7c-2.6,0.2-5,1.4-6.7,3.4C49.2,252.1,48.2,254.3,47.9,256.7"/>
	<path class="st1" d="M31.4,247.8c-5.1-4.3-12.8-3.9-19.4-3.8c10.7,5.1,20.8,11.4,30.1,18.8C42.4,258.1,37.8,253.3,31.4,247.8z"/>
	<g class="st2">
		<path d="M31.4,247.8c-5.1-4.3-12.8-3.9-19.4-3.8c10.7,5.1,20.8,11.4,30.1,18.8C42.4,258.1,37.8,253.3,31.4,247.8z"/>
	</g>
	<path class="st1" d="M50.2,241.8c2.5-1.7,5.1-3.2,7.8-4.5c2.7-1.2,5.2-3.1,7.7-4.5c3.3-1.8,6.2-4.3,9.3-6.6s6.4-4.3,10.2-4.9
		c-3.1-0.5-6.3-0.4-9.3,0.5c-3,0.9-5.9,2-8.7,3.4c-4,1.8-8,3.6-11.2,6.5S49.9,237.5,50.2,241.8"/>
	<path class="st0" d="M71.9,276.1c-0.1,0-0.2-0.1-0.3-0.1l-0.7-0.3c-0.6-0.3-1.5-0.8-2.6-1.4c-0.5-0.3-1.1-0.6-1.8-0.9
		s-1.3-0.6-2.1-1c-1.6-0.7-3.3-1.3-5-1.7c-1.7-0.5-3.5-0.5-5.2-0.1c-0.7,0.2-1.5,0.4-2.2,0.6c-1.5,0.6-2.9,1.6-4,2.8
		c-0.5,0.5-0.7,0.8-0.7,0.8l0.2-0.2c0.2-0.2,0.3-0.4,0.5-0.6c0.6-0.7,1.4-1.4,2.2-1.9c0.6-0.4,1.2-0.7,1.8-1
		c0.7-0.3,1.5-0.5,2.2-0.7c1.7-0.4,3.6-0.4,5.3,0.1c1.7,0.4,3.4,1,5,1.8c0.7,0.3,1.4,0.7,2.1,1s1.2,0.6,1.8,0.9
		c1.1,0.6,1.9,1.1,2.5,1.4l0.7,0.4C71.7,275.9,71.8,276,71.9,276.1z"/>
	<path class="st0" d="M38.8,272.1c0.2,0,0.3,0.1,0.5,0.1c0.4,0.2,0.9,0.4,1.3,0.6c1.4,0.7,2.7,1.6,3.8,2.7c1.1,1.1,2.1,2.4,2.9,3.7
		c0.2,0.4,0.4,0.8,0.6,1.3c0.1,0.2,0.1,0.3,0.2,0.5c0,0-0.3-0.7-1-1.7c-0.8-1.3-1.8-2.6-2.9-3.6c-1.1-1.1-2.4-2-3.8-2.8
		C39.5,272.4,38.8,272.1,38.8,272.1z"/>
	<path class="st0" d="M20.9,247.4c0.1,0,0.2,0.1,0.3,0.1l1,0.3l1.5,0.6c0.6,0.2,1.2,0.5,2,0.9c3.8,1.7,7.3,4,10.5,6.7
		c1.7,1.5,3.4,3.1,4.9,4.8c1.2,1.4,2.4,2.9,3.5,4.4c0.9,1.3,1.6,2.4,2.1,3.1l0.6,0.9c0.1,0.1,0.1,0.2,0.2,0.3l-0.2-0.3
		c-0.1-0.2-0.3-0.5-0.6-0.8c-0.5-0.7-1.2-1.8-2.2-3.1s-2.1-2.8-3.5-4.4c-1.5-1.7-3.2-3.3-4.9-4.8c-3.2-2.7-6.7-4.9-10.4-6.7
		c-0.7-0.3-1.4-0.7-2-0.9l-1.5-0.6l-1-0.4L20.9,247.4z"/>
	<path class="st0" d="M60.1,252.2c-0.2,0-0.4,0-0.6-0.1l-0.7-0.1c-0.3,0-0.6,0-1-0.1c-3-0.3-6,0.8-8.1,3c-0.6,0.6-1.2,1.3-1.6,2
		c-0.4,0.7-0.8,1.4-1.1,2.1c0-0.2,0.1-0.4,0.2-0.6c0.2-0.6,0.5-1.1,0.8-1.6c0.4-0.8,1-1.5,1.6-2.1c0.7-0.8,1.6-1.4,2.6-1.9
		c1.8-0.9,3.7-1.2,5.7-1c0.4,0,0.7,0.1,1,0.1l0.7,0.2C59.7,252,59.9,252.1,60.1,252.2z"/>
	<path class="st0" d="M68.2,227.1l-0.3,0.2l-0.9,0.5c-0.8,0.4-1.9,1-3.3,1.9c-1.4,0.9-3,1.8-4.7,3c-1.9,1.3-3.6,2.8-5.2,4.4
		c-0.8,0.8-1.5,1.7-2.1,2.8c-0.5,1-1,2-1.5,2.9c-0.8,1.7-1.6,3.4-2.2,5.1c-0.4,1.2-0.8,2.4-1.1,3.6c-0.2,0.9-0.3,1.3-0.3,1.3
		c0-0.1,0-0.2,0-0.4c0-0.2,0.1-0.6,0.2-1c0.2-1.2,0.6-2.4,1-3.6c0.6-1.7,1.4-3.5,2.2-5.1c0.5-1,1-1.9,1.5-3c0.6-1,1.3-2,2.2-2.8
		c1.6-1.6,3.4-3.1,5.3-4.4c1.7-1.2,3.3-2.2,4.7-3c1.4-0.8,2.5-1.4,3.3-1.8l0.9-0.4C67.9,227.1,68.1,227.1,68.2,227.1z"/>
	<path class="st0" d="M45.6,251.5c-0.1-0.2-0.1-0.4-0.2-0.7l-0.3-1.9c-0.8-4.1-2-8.1-3.8-11.9l-0.8-1.7c-0.1-0.2-0.2-0.4-0.3-0.6
		c0.1,0.2,0.3,0.4,0.4,0.6c0.2,0.4,0.5,1,0.9,1.7c0.9,1.9,1.7,3.8,2.4,5.8c0.6,2,1.1,4,1.5,6.1c0.1,0.8,0.2,1.4,0.3,1.9
		C45.6,251,45.6,251.2,45.6,251.5z"/>
	<path class="st1" d="M44.9,233.1c-0.2-3.1-1.1-6-2.6-8.7c-4-7.5-11.2-12.8-19.5-14.5l18,26.9l2.3,4.8
		C44.6,239,45.3,236.1,44.9,233.1z"/>
	<rect x="28.9" y="286.1" class="st3" width="41.9" height="7.4"/>
	<polygon class="st3" points="32,292.1 35.6,315.1 63.4,315.1 67.7,292.1 	"/>
	<path class="st0" d="M70.8,293.5c0,0.1-9.5,0.1-21.1,0.1s-21.1-0.1-21.1-0.1s9.5-0.1,21.1-0.1S70.8,293.5,70.8,293.5z"/>
</g>
<g id="freepik--character-3--inject-92">
	<path class="st4" d="M579.3,122.5c0,0-7.1-0.2-11.1,3.9l5.8,10.3l10.9-2.2l1-3.5l1.8-6.6L579.3,122.5z"/>
	<path class="st1" d="M507.3,113.5c0,0,3.5,2.2,4.3,4.6c0.9,2.4,20.7,16.5,20.7,16.5l2.7-0.7l31.9-9.8l8,14.4l-39.5,14.8
		c-1.2,0.2-29.2-8.9-29.2-8.9L507.3,113.5z"/>
	<path class="st3" d="M583,146.6l-24.3-7.7l-10,31.3l-33.7-10.7l10-31.3l-80.3-25.6l7.4-23.2L552.7,7.1l36.3,11.5l-93.8,68.9
		l40,12.8l8.9-27.9l32.6,10.4l-8.9,27.9l24.3,7.7L583,146.6z"/>
	<g class="st2">
		<path d="M583,146.6l-24.3-7.7l-10,31.3l-33.7-10.7l10-31.3l-80.3-25.6l7.4-23.2L552.7,7.1l36.3,11.5l-93.8,68.9l40,12.8l8.9-27.9
			l32.6,10.4l-8.9,27.9l24.3,7.7L583,146.6z"/>
	</g>
	<path class="st3" d="M573.9,143.8l-24.3-7.7l-10,31.3l-33.6-10.7l10-31.3l-80.3-25.7l7.4-23.2L543.5,4.3l36.2,11.6l-93.8,68.9
		l40,12.8l8.9-27.9L567.4,80l-8.9,27.9l24.3,7.7L573.9,143.8z"/>
	<g class="st2">
		<path d="M510.8,123.6l-0.3-9.8l0.8-4.8c0,0,9.2,0.3,11.2-3.1c1.5-2.8,2.7-5.7,3.6-8.6l-11.5-2.7l-8.4,13.2l-2.5,6.5l4,8.4
			L510.8,123.6z"/>
	</g>
	<path class="st0" d="M495.4,82.2c0.1-3.9,0.5-7.8,1.3-11.6c0.8-3.8,2.5-7.4,5-10.4c0.4-0.4,3.4-3.3,3.9-3c0.4,0.2-1.9,3-1.8,3.4
		c0.5,4-0.2,8.1-2.1,11.7C500,75.9,497.9,79.2,495.4,82.2"/>
	<path class="st4" d="M508.1,110.2c1-2.5,1.8-4.5,1.8-4.5s9.1,2.5,13.1-6c1.9-4.1,5.1-12.9,7.9-20.8c3-8.6-1-18-9.3-21.8l-0.8-0.4
		c-9.1-3.5-17.2,2.4-20.4,11.6l-12.2,31.9l3.3,9.8c1.6,4.6,6.6,7.1,11.2,5.5C505.2,114.5,507.1,112.6,508.1,110.2L508.1,110.2z"/>
	<path class="st5" d="M509.9,105.6c-3.9-1.8-7.3-4.6-9.7-8.3c0,0-0.1,7.4,8.8,10.5L509.9,105.6z"/>
	<path class="st0" d="M522.6,84.9c-0.3,0.7-1.1,1-1.7,0.7c-0.7-0.2-1-1-0.8-1.6c0,0,0,0,0,0c0.3-0.7,1.1-1,1.7-0.7
		C522.5,83.5,522.9,84.2,522.6,84.9C522.6,84.9,522.6,84.9,522.6,84.9z"/>
	<path class="st0" d="M527.5,81.5c-0.2,0.1-0.8-1-2.2-1.6s-2.6-0.4-2.6-0.6s0.2-0.3,0.8-0.4c0.7-0.1,1.5,0,2.2,0.3
		c0.7,0.3,1.3,0.8,1.6,1.5C527.6,81.1,527.6,81.4,527.5,81.5z"/>
	<path class="st0" d="M511.5,80.4c-0.3,0.7-1.1,1-1.7,0.7c-0.7-0.2-1-1-0.8-1.6c0,0,0,0,0,0c0.3-0.7,1.1-1,1.7-0.7
		C511.4,79,511.8,79.7,511.5,80.4C511.5,80.4,511.5,80.4,511.5,80.4z"/>
	<path class="st0" d="M515.1,76.5c-0.2,0.1-0.8-1-2.2-1.6c-1.3-0.6-2.6-0.4-2.6-0.6s0.2-0.3,0.8-0.4c0.7-0.1,1.5,0,2.2,0.3
		c0.7,0.3,1.3,0.8,1.6,1.5C515.2,76.1,515.2,76.4,515.1,76.5z"/>
	<path class="st0" d="M514.6,88.4c0.8,0.1,1.6,0.3,2.3,0.6c0.3,0.1,0.7,0.2,0.9,0c0.2-0.3,0.3-0.7,0.2-1.1c0-1,0.1-1.9,0.2-3
		c0.2-4.2,0.6-7.7,0.8-7.7s0.1,3.5-0.1,7.7c-0.1,1.1-0.1,2-0.2,3c0,0.5-0.1,1-0.4,1.4c-0.2,0.2-0.5,0.3-0.8,0.2
		c-0.2,0-0.4-0.1-0.6-0.2C516,89.2,515.3,88.9,514.6,88.4z"/>
	<path class="st0" d="M516.9,72c-0.3,0.2-1.4-0.7-3-1.5s-2.9-1.1-2.9-1.6c0-0.2,0.4-0.4,1.1-0.4c0.9,0,1.7,0.2,2.5,0.6
		c0.8,0.4,1.5,1,2,1.7C517,71.4,517.1,71.9,516.9,72z"/>
	<path class="st0" d="M529.2,76.7c-0.4,0.2-1.1-0.5-2.2-1s-2.1-0.7-2.2-1.1c0-0.2,0.2-0.4,0.8-0.5c0.7-0.1,1.4,0,2,0.3
		c0.6,0.3,1.2,0.8,1.5,1.4C529.4,76.2,529.4,76.6,529.2,76.7z"/>
	<path class="st4" d="M498.3,74.8c-0.1-0.1-5.1-4.4-7.5,1.6s4,7.1,4.1,7S498.3,74.8,498.3,74.8z"/>
	<path class="st5" d="M494,80.4c0,0-0.1,0-0.3,0c-0.3,0-0.6-0.1-0.8-0.3c-0.6-0.8-0.7-1.9-0.2-2.8c0.2-0.5,0.5-1,0.9-1.4
		c0.3-0.3,0.7-0.5,1.1-0.5c0.3,0,0.5,0.3,0.5,0.5c0,0.2-0.1,0.3,0,0.3s0.2,0,0.2-0.3c0-0.2,0-0.3-0.1-0.5c-0.1-0.2-0.3-0.3-0.5-0.4
		c-0.5-0.1-1.1,0.1-1.5,0.5c-0.5,0.4-0.8,0.9-1,1.5c-0.5,1.1-0.3,2.3,0.5,3.2c0.3,0.2,0.6,0.3,1,0.2C493.9,80.5,494,80.4,494,80.4z"
		/>
	<path class="st0" d="M531,67.4c1.2-0.1-0.5-4.4-2.4-6.4c-2.9-3.1-8-6.2-11.7-6.6c-4.4-0.5-8.5,0.2-11.9,3
		c-3.4,2.9-5.9,6.7-7.4,10.9c-0.6,1.3-0.8,2.6-0.6,4c0.3,1.6,1.6,3.1,0.8,4.9c-0.3,0.6-0.3,1.4-0.1,2.1c0.6,1.6,2.4,1,3.4,0.2
		c2.2-1.8,3.5-4.5,4.7-7.2c0.9-1.8,1.6-3.8,1.9-5.8c0.1-1.1,0-2.2,0.2-3.3c0.1-1.1,0.7-2.2,1.6-2.8c0.2-0.1,0.4-0.2,0.7-0.3
		c2.3-0.8,4.8-0.3,6.6,1.3c2.9,2.5,7.9,6.6,9.8,6c1.3-0.3,2.6-0.8,3.7-1.6L531,67.4z"/>
	<path class="st0" d="M514.8,93.1c0,0.1-0.3,0.2-0.9,0.1c-0.7-0.1-1.4-0.4-1.9-0.9c-0.5-0.5-0.9-1.1-1.1-1.8c-0.1-0.5,0-0.9,0.1-0.9
		s0.6,1.1,1.6,2.1C513.6,92.6,514.8,92.9,514.8,93.1z"/>
	<path class="st5" d="M517.6,41.7c-1.1,2.2-2.3,4.2-3.7,6.2c-1.2,2.1-2.6,4.1-4.1,5.9c1.1-2.2,2.3-4.2,3.7-6.2
		C514.7,45.6,516.1,43.6,517.6,41.7z"/>
	<path class="st0" d="M491.6,226.1l18.6,17.7c0,0-9,60.3-7.4,60.4l22.2,1.6c0,0,13.4-69.8,12.4-73.9s-33.5-36.3-33.5-36.3l-0.4-5.5
		l-9.2-1.2L491.6,226.1z"/>
	<path class="st0" d="M456.7,201.9c1.8,4.1,4.8,8.9,5.4,13l11.3,41.2l-40.4,49l18,15.1c0,0,48.6-52.5,50.3-58.9
		c1.3-5.1-4.1-57-4.1-57l1.8-14.8l-42-10v0.1C453.7,186.6,453.5,194.8,456.7,201.9z"/>
	<path class="st0" d="M460.5,306.4l-13,15c0,0,10,17.7,7.9,20.7l-28.4-23l19.4-24.2L460.5,306.4z"/>
	<path class="st6" d="M439.7,313c-0.7-0.3-1.6,0-1.9,0.7c-0.4,0.7-0.1,1.5,0.6,1.9c0.8,0.3,1.6-0.1,2-0.8c0.3-0.8-0.1-1.6-0.9-1.9
		c0,0,0,0,0,0"/>
	<path class="st1" d="M426.9,319.1l2-2.4l26.5,23c0,0,0.8,1.6-0.1,2.4L426.9,319.1z"/>
	<path class="st7" d="M448,321.6c-0.1,0.1-0.9-0.4-1.9-0.4s-1.9,0.2-2,0.1s0.8-0.8,2.1-0.7S448.2,321.5,448,321.6z"/>
	<path class="st7" d="M449.9,325.4c-0.1,0.2-0.9-0.1-1.9,0.2s-1.6,0.8-1.8,0.7s0.5-1,1.7-1.3S450.1,325.2,449.9,325.4z"/>
	<path class="st7" d="M448.6,330.5c-0.1-0.1,0.2-1,1.2-1.5s1.9-0.3,1.9-0.1s-0.8,0.3-1.6,0.7S448.8,330.6,448.6,330.5z"/>
	<path class="st7" d="M450.6,317.9c-0.2,0.1-0.6-0.6-1.5-1.2s-1.7-0.8-1.6-1s1-0.2,2,0.5S450.8,317.9,450.6,317.9z"/>
	<path class="st0" d="M524.2,293.5l-0.2,20.2c0,0,19.4,7.1,19.7,10.9l-37.2,0.8l-0.8-31.6L524.2,293.5z"/>
	<path class="st6" d="M512.4,312.3c-0.7,0.3-1.2,1.1-1,1.9c0.2,0.8,1,1.2,1.7,1.1c0.8-0.3,1.3-1.2,1.1-2c-0.3-0.8-1.1-1.2-1.9-0.9
		c0,0,0,0,0,0"/>
	<path class="st1" d="M506.4,325.4v-3.2l35.7,0.5c0,0,1.7,0.7,1.5,2L506.4,325.4z"/>
	<path class="st7" d="M524.5,313.6c0,0.2-0.9,0.3-1.8,0.9s-1.3,1.5-1.5,1.4s0.1-1.2,1.2-1.9S524.5,313.4,524.5,313.6z"/>
	<path class="st7" d="M528.5,315.2c0,0.2-0.7,0.5-1.3,1.4s-0.8,1.7-1,1.7s-0.3-1.1,0.5-2.1S528.4,315,528.5,315.2z"/>
	<path class="st7" d="M530.8,320.1c-0.2,0-0.4-0.9,0-2s1.3-1.5,1.4-1.3s-0.4,0.7-0.8,1.6S530.9,320,530.8,320.1z"/>
	<path class="st7" d="M524.1,308.9c-0.1,0.2-0.9-0.1-1.9,0s-1.8,0.5-1.9,0.3s0.7-0.9,1.9-1S524.2,308.8,524.1,308.9z"/>
	<path class="st1" d="M497.6,200.8c0,0.2,0.1,0.4,0.1,0.5c0,0.4,0.1,0.9,0.2,1.5c0.2,1.3,0.4,3.3,0.6,5.7c0.5,4.8,1,11.5,1.5,18.9
		s0.9,14,1.2,18.9c0.1,2.4,0.2,4.3,0.3,5.7l0.1,1.6c0,0.2,0,0.4,0,0.5c-0.1-0.2-0.1-0.4-0.1-0.5c0-0.4-0.1-0.9-0.2-1.5
		c-0.1-1.4-0.3-3.4-0.5-5.7c-0.4-4.8-0.8-11.5-1.3-18.9s-1-14-1.3-18.9c-0.2-2.4-0.3-4.3-0.4-5.7c0-0.6-0.1-1.1-0.1-1.6
		C497.6,201.2,497.6,201,497.6,200.8z"/>
	<path class="st4" d="M595.9,122.1c0.8,1.5-2.3,2.9-2.3,2.9c0.7,0.6,0,3.1-1.3,3.3c0.5,0.4,0.9,0.5,1.2,1.1c0.3,0.6,0.2,1.3-0.2,1.9
		c-0.4,0.6-1.1,0.8-1.8,0.6c0.7,0.8,0.7,2,0.2,2.9c-0.3,0.5-0.8,0.9-1.5,1.1c-0.3,0.1-0.6,0.1-0.9,0.1c-0.1,0-0.2,0-0.3,0l-0.1-0.1
		c-0.2-0.2-0.3-0.4-0.5-0.6l-0.2-0.2c-0.3-0.3-0.7-0.5-1.1-0.7c-0.2-0.1-0.4-0.1-0.6-0.2c-0.1-0.1-0.2-0.2-0.3-0.3
		c-0.7-0.5-1.5-0.8-2.3-1c-0.9-0.2-1.8-0.7-2.4-1.3c-0.7-0.7-0.6-1.8,0.1-2.5c-0.6-0.1-1.1-0.7-1-1.3c0.1-0.6,0.5-1.1,1-1.4
		c0.5-0.2,1.2-0.3,1.8-0.3c-0.7-0.3-1-1-0.8-1.7c0.3-0.7,0.8-1.1,1.5-1.3c0.7-0.1,1.4-0.1,2.1,0.1c0.7,0.1,3.5,0.7,4.2,0.8l0.7-1.9
		l0.1-0.2c1.3-0.2,1.6-0.3,2.8-0.3C594.8,121.4,595.6,121.4,595.9,122.1z"/>
	<path class="st4" d="M589.1,138.3c-0.1,0.6-0.5,1.1-1,1.3c-0.8,0.1-1.7,0-2.5-0.3l0.5-1.9l0.1-0.5c-0.1-0.4-0.9-0.6-1.3-0.9
		c-0.6-0.5-0.7-1.5-0.2-2.1c0.5-0.6,1.4-0.8,2.1-0.6c0.8,0.3,1.4,0.8,1.8,1.5C589.3,135.8,589.5,137.1,589.1,138.3z"/>
	<path class="st5" d="M591.8,131.8c-1.6-0.7-3.3-1.3-5-1.7c-1.7-0.6-3.4-1-5.2-1.2c1.6,0.7,3.3,1.3,5.1,1.7
		C588.3,131.2,590,131.6,591.8,131.8z"/>
	<path class="st5" d="M592.5,128.2c-1.4-0.8-3-1.4-4.6-1.7c-1.6-0.5-3.2-0.7-4.8-0.6c1.5,0.5,3.1,0.9,4.7,1.2
		C589.3,127.5,590.9,127.9,592.5,128.2z"/>
	<path class="st5" d="M593.2,124.6c-1.2-0.6-2.5-1.1-3.8-1.2c-1.3-0.4-2.6-0.5-4-0.6c1.2,0.5,2.5,0.9,3.8,1.1
		C590.5,124.3,591.8,124.5,593.2,124.6z"/>
	<path class="st5" d="M589.1,137.1c0.1,0,0.3-0.3,0.2-0.9c-0.1-0.8-0.5-1.5-1.2-1.9c-0.6-0.5-1.3-0.8-2-1.1c-0.6-0.1-1,0.2-0.9,0.3
		s0.3-0.1,0.8,0.1c0.6,0.3,1.2,0.7,1.7,1.1c0.5,0.4,0.9,1,1.1,1.6C589.1,136.7,589,137.1,589.1,137.1z"/>
	<path class="st0" d="M505.9,154.9c0-0.5,0-1,0.1-1.5c0.1-1,0.2-2.4,0.4-4c0.3-3.4,0.7-8.1,0.9-13.4s0.2-10,0.2-13.4
		c0-1.6,0-3-0.1-4.1c0-0.5,0-1,0-1.5c0.1,0.5,0.2,1,0.2,1.5c0.1,1,0.2,2.3,0.2,4.1c0.2,3.4,0.2,8.2,0,13.4s-0.6,10-1,13.4
		c-0.2,1.7-0.4,3.1-0.5,4C506.1,153.9,506,154.4,505.9,154.9z"/>
	<path class="st1" d="M490.3,93.9c-0.9,0.5-17.9,8.8-21.5,12.9s-9.1,30.1-9.1,30.1l-4.1,23.1l-3.2,34.3l53.2,0.6
		c2.1-4.7,0.7-9.6-1.8-14.5l4.1-54.2l-0.7-12.7L490.3,93.9z"/>
	<path class="st1" d="M467.5,121.5c0,0-8.9-3.8-9.8-9.5s0.2-7.2,1.7-9.6S488,71.2,488,71.2l13.3,10.9l-19.2,22.5c0,0,2.8,0.4,1.9,4"
		/>
	<path class="st0" d="M484,108.7c0.1-0.4,0.1-0.9,0.1-1.3c0-0.5-0.1-1-0.4-1.5c-0.4-0.6-1-1-1.7-1.1h-0.2l0.1-0.1L501.1,82v0.3
		l-13.3-10.9h0.3l-5,5.4l-15.7,16.8c-2.4,2.6-4.7,5.1-6.7,7.5c-0.5,0.6-1,1.2-1.4,1.8c-0.4,0.6-0.8,1.3-1.1,1.9
		c-0.5,1.3-0.8,2.6-0.7,4c0,1.3,0.2,2.5,0.5,3.8c0.3,1.1,0.8,2.1,1.5,2.9c1.1,1.4,2.5,2.6,4,3.6c0.9,0.6,1.9,1.2,3,1.8l0.8,0.4
		c0.1,0,0.2,0.1,0.3,0.1c-0.1,0-0.2-0.1-0.3-0.1l-0.8-0.4c-1-0.5-2-1.1-3-1.7c-1.6-1-2.9-2.2-4.1-3.6c-0.7-0.9-1.3-1.9-1.6-3
		c-0.3-1.3-0.5-2.5-0.5-3.8c-0.1-1.4,0.2-2.9,0.7-4.2c0.6-1.4,1.5-2.7,2.5-3.8c2.1-2.4,4.3-4.9,6.7-7.5c4.8-5.2,10.1-11,15.6-16.9
		l5-5.4l0.2-0.2l0.2,0.2l13.3,10.9l0.2,0.2l-0.2,0.2l-19.3,22.5l-0.1-0.2c0.7,0.1,1.4,0.6,1.8,1.3c0.3,0.5,0.4,1,0.3,1.6
		c0,0.3-0.1,0.7-0.1,1C484.1,108.5,484,108.6,484,108.7z"/>
	<path class="st4" d="M489.8,47.9c0,0-1.6-1.2-1.9,1.4s2.2,13,2.5,13s1.8,6,1.6,6.8s-2.5,3.3-2.5,3.3l10.6,8.7l3.3-5.9
		c2.5-1,4.6-2.7,6.2-4.8c2.4-3.5,11.4-16.9,11.7-18.7s-1.6-2.1-3-0.3s-4.5,6-5.1,6.3s-0.9-0.5-0.6-1s6.3-10,6.8-11.8
		c0.8-2.4-1.8-2.8-1.8-2.8s0.9-2.5-0.4-2.9s-2.6,0.8-4,2.9c-1.4,2.1-6.2,9-6.7,9.3s-0.9,0-0.5-0.9s6.2-9.4,6.2-10.6
		s-0.9-3.1-3.4-0.6s-8,13-8.8,13.9s-3.4,3.8-4.3,3.5s-3.3-3.3-3.8-5.5C491.6,49.8,490.9,48.7,489.8,47.9z"/>
	<path class="st5" d="M489.8,47.9c0.4,0.2,0.7,0.6,1,0.9c0.4,0.4,0.6,1,0.8,1.5c0.1,0.3,0.2,0.7,0.3,1c0.1,0.4,0.3,0.8,0.5,1.1
		c0.4,0.9,1,1.7,1.6,2.4c0.6,0.7,1.6,2.1,2.6,1c1-0.8,2-1.8,2.9-2.8c0.5-0.5,0.9-1.1,1.2-1.8l1.2-2c1.6-2.8,3.3-5.8,5.5-9
		c0.6-0.8,1.2-1.6,2-2.2c0.4-0.3,1-0.5,1.5-0.5c0.6,0.1,1.1,0.6,1.2,1.1c0.1,0.3,0.1,0.5,0.2,0.8c0,0.2,0,0.3-0.1,0.4l-0.2,0.4
		c-0.2,0.5-0.5,0.9-0.7,1.4c-0.5,0.9-1.1,1.8-1.7,2.7l-3.5,5.6c-0.1,0.2-0.2,0.4-0.2,0.7c0,0.1,0,0.1,0.1,0.1c0.1,0,0.1,0,0.2,0
		l0.1-0.1l0.1-0.2c0.1-0.1,0.2-0.2,0.3-0.3l0.5-0.7c0.7-0.9,1.4-1.9,2.1-2.9l4.2-6c0.4-0.5,0.8-1,1.3-1.4c0.5-0.5,1.1-0.8,1.8-0.8
		c0.4,0,0.7,0.1,1,0.4c0.3,0.3,0.4,0.6,0.4,1c0,0.7-0.1,1.4-0.3,2l-0.2-0.3c0.9,0.1,1.6,0.7,2,1.5c0.3,0.8,0.2,1.7-0.3,2.4
		c-0.7,1.4-1.5,2.8-2.3,4.2l-2.5,4.1l-1.3,2.1l-0.3,0.5l-0.2,0.2c0,0.1-0.1,0.1-0.1,0.2c0,0.1,0,0.3,0.1,0.4c0.1,0.1,0.2,0.1,0.3,0
		c0.2-0.1,0.3-0.3,0.5-0.4l0.5-0.5l0.9-1.1c0.6-0.8,1.2-1.5,1.8-2.3s1.1-1.5,1.8-2.3c0.4-0.4,0.8-0.7,1.3-0.8c0.6-0.2,1.2,0,1.5,0.4
		c0.3,0.5,0.4,1,0.2,1.6c-0.1,0.2-0.2,0.5-0.3,0.7c-0.1,0.2-0.2,0.4-0.3,0.6c-0.4,0.8-0.9,1.6-1.4,2.4c-0.9,1.6-1.9,3.1-2.9,4.6
		c-1.9,3-3.9,5.9-5.8,8.7c-0.5,0.7-0.9,1.4-1.4,2.1c-0.5,0.7-1.1,1.3-1.7,1.8c-1.2,1.1-2.7,1.9-4.2,2.6l0.1-0.1l-3.3,5.9l-0.1,0.2
		l-0.2-0.2l-10.5-8.7l-0.2-0.1l0.1-0.1c0.7-0.8,1.4-1.5,2-2.4c0.1-0.2,0.3-0.4,0.4-0.6c0.1-0.2,0.2-0.4,0.1-0.6c0-0.5-0.1-1-0.2-1.4
		c-0.2-0.9-0.4-1.8-0.6-2.7c-0.1-0.4-0.2-0.9-0.4-1.3c-0.1-0.2-0.1-0.4-0.2-0.6c0-0.1-0.1-0.2-0.1-0.2l0,0c0,0,0.1,0,0,0
		c-0.1,0-0.1,0-0.2-0.1l0,0l-0.1-0.2c-0.5-1.5-0.9-3-1.2-4.6c-0.3-1.4-0.5-2.7-0.7-3.9c-0.3-2.3-0.7-4.2-0.1-5.4
		c0.1-0.3,0.3-0.5,0.6-0.6c0.2-0.1,0.4-0.1,0.6,0C489.5,47.7,489.7,47.8,489.8,47.9c0-0.1-0.2-0.2-0.5-0.3c-0.2-0.1-0.4-0.1-0.6,0
		c-0.3,0.1-0.5,0.3-0.5,0.5c-0.5,1.1-0.2,3,0.2,5.4c0.5,2.8,1.2,5.6,2,8.4c0,0,0,0.1,0.1,0.1l0,0c0,0-0.1,0-0.1,0.1s0,0.2,0-0.1l0,0
		h0.1v0.1c0.1,0.1,0.1,0.2,0.2,0.3c0.1,0.2,0.2,0.4,0.2,0.6c0.1,0.4,0.3,0.8,0.4,1.3c0.2,0.9,0.5,1.8,0.6,2.7c0.1,0.5,0.2,1,0.2,1.5
		c0,0.1,0,0.3,0,0.4c0,0.1-0.1,0.3-0.2,0.4c-0.1,0.2-0.3,0.5-0.4,0.7c-0.6,0.8-1.3,1.6-2,2.4v-0.3l10.6,8.7l-0.3,0.1
		c1-1.9,2.1-3.9,3.3-5.9v-0.1h0.1c1.5-0.6,2.8-1.4,4-2.5c0.6-0.5,1.2-1.1,1.7-1.8c0.5-0.6,1-1.4,1.4-2.1c1.9-2.8,3.8-5.7,5.8-8.7
		c1-1.5,1.9-3,2.9-4.6c0.5-0.8,0.9-1.6,1.4-2.4c0.1-0.2,0.2-0.4,0.3-0.6c0.1-0.2,0.2-0.4,0.2-0.6c0.1-0.4,0.1-0.8-0.1-1.1
		c-0.2-0.3-0.7-0.4-1-0.2c-0.4,0.1-0.8,0.4-1.1,0.7c-0.6,0.6-1.2,1.5-1.7,2.2s-1.2,1.5-1.8,2.3c-0.3,0.4-0.6,0.8-0.9,1.1l-0.5,0.6
		c-0.2,0.2-0.4,0.4-0.6,0.5c-0.3,0.1-0.6,0.1-0.9-0.1c-0.2-0.2-0.3-0.5-0.3-0.8c0-0.1,0.1-0.3,0.1-0.4l0.2-0.3l0.3-0.5l1.4-1.9
		c0.8-1.4,1.7-2.8,2.5-4.1s1.6-2.7,2.3-4.1c0.4-0.6,0.5-1.3,0.3-2c-0.3-0.6-0.9-1-1.6-1.2l-0.3-0.1l0.1-0.3c0.2-0.6,0.3-1.2,0.3-1.8
		c0-0.3-0.1-0.5-0.3-0.7c-0.2-0.2-0.4-0.2-0.7-0.2c-0.6,0-1.1,0.3-1.5,0.7c-0.4,0.4-0.8,0.9-1.2,1.4l-4.2,6c-0.7,1-1.4,1.9-2.1,2.9
		l-0.5,0.7l-0.3,0.4l-0.1,0.2l-0.2,0.2c-0.2,0.1-0.4,0.1-0.6,0.1c-0.2-0.1-0.3-0.3-0.3-0.6c0-0.3,0.1-0.6,0.3-0.9
		c1.2-2,2.5-3.8,3.6-5.6c0.6-0.9,1.1-1.8,1.6-2.7c0.2-0.4,0.5-0.9,0.7-1.4l0.1-0.3c0-0.1,0-0.2,0-0.3c0-0.2,0-0.5-0.1-0.7
		c-0.1-0.4-0.4-0.8-0.8-0.9c-0.5,0-0.9,0.2-1.2,0.5c-0.7,0.6-1.3,1.2-1.9,2c-2.2,3.1-3.9,6.1-5.5,8.9c-0.4,0.7-0.8,1.4-1.2,2
		c-0.4,0.7-0.8,1.3-1.3,1.8c-0.9,1-1.9,2-3,2.8c-0.3,0.2-0.5,0.3-0.9,0.4c-0.2,0.1-0.4,0.1-0.5,0c-0.1-0.1-0.3-0.1-0.4-0.2
		c-0.4-0.4-0.8-0.8-1.2-1.2c-0.6-0.8-1.1-1.6-1.6-2.5c-0.2-0.4-0.3-0.8-0.5-1.2c-0.1-0.4-0.2-0.7-0.3-1c-0.2-0.5-0.4-1-0.8-1.5
		c-0.2-0.3-0.4-0.5-0.7-0.8C490,48.1,489.9,48,489.8,47.9z"/>
	<path class="st1" d="M482.2,104.7c-1.4,2.7-3.1,5.1-5.2,7.4c-2.1,2.2-4.9,3.6-8,3.8"/>
	<path class="st0" d="M469,115.9c0-0.1,1-0.1,2.5-0.6c2-0.7,3.8-1.9,5.2-3.4c1.5-1.5,2.8-3.2,3.9-5c0.4-0.8,0.9-1.5,1.5-2.2
		c-0.3,0.8-0.7,1.6-1.2,2.4c-1,1.9-2.3,3.6-3.8,5.2c-1.5,1.6-3.4,2.7-5.5,3.4c-0.6,0.2-1.3,0.3-1.9,0.3
		C469.5,116,469.3,116,469,115.9z"/>
	<path class="st0" d="M483.2,112.4c-0.4,0.7-0.9,1.4-1.5,2c-2.7,3-6.1,5.1-10,6.2c-0.8,0.3-1.6,0.4-2.4,0.4
		C474.7,119.7,479.6,116.7,483.2,112.4L483.2,112.4z"/>
	<g class="st2">
		<path d="M469.4,115.4c2.5,0.9,4.9,1.2,7.3,0.1c2.4-1.1,4.3-3.2,5.3-5.7c0.7-1.8,0.8-3.8,1.6-5.6c1.8-3.9,6.5-6.2,7.5-10.4
			c-3.7,4.1-7.2,7.7-10.1,12.6c-1.4,2.4-3.2,4.5-5.3,6.3c-1.8,1.6-4.1,2.5-6.5,2.6"/>
	</g>
	<g class="st2">
		<path d="M506.9,144.6l2.3,0.7c0,0,0.9-17.5-1.6-22.8L506.9,144.6z"/>
	</g>
</g>
<g id="freepik--character-2--inject-92">
	<path class="st8" d="M277.5,98.9l-6.7-37.3c-2-9.2,1.8-18.1,11-19.8l0.9-0.1c8.7-1.1,16.8,4.7,18.6,13.3c1.7,8,3.4,16.9,3.9,21.2
		c1,9-7.8,11.5-7.8,11.5s0.9,5.4,1.3,8.1l3.1,5.8l-7.6-0.6L277.5,98.9z"/>
	<path class="st9" d="M297.4,87.7c-4.1,0.5-8.4-0.2-12.1-2c0,0,3.6,6.4,12.5,4.5L297.4,87.7z"/>
	<path class="st0" d="M298.8,63.7c0.1,0.7-0.4,1.3-1.1,1.4c-0.7,0.1-1.3-0.3-1.5-1c0,0,0,0,0,0c-0.1-0.7,0.4-1.3,1.1-1.4
		C298,62.6,298.7,63,298.8,63.7C298.8,63.7,298.8,63.7,298.8,63.7z"/>
	<path class="st0" d="M299.9,59.2c-0.1,0.2-1.2-0.4-2.6-0.2s-2.3,1-2.5,0.8s0-0.4,0.4-0.8c0.6-0.5,1.3-0.8,2-0.9
		c0.7-0.1,1.4,0,2.1,0.4C299.7,58.8,299.9,59.1,299.9,59.2z"/>
	<path class="st0" d="M286.6,65.3c0.1,0.7-0.4,1.3-1.1,1.4c-0.7,0.1-1.3-0.3-1.5-1c0,0,0,0,0,0c-0.1-0.7,0.4-1.3,1.1-1.4
		C285.8,64.1,286.5,64.6,286.6,65.3C286.6,65.2,286.6,65.3,286.6,65.3z"/>
	<path class="st0" d="M286.4,61.2c-0.1,0.2-1.2-0.4-2.6-0.2s-2.3,1-2.5,0.8s0-0.4,0.4-0.8c0.6-0.5,1.3-0.8,2-0.9
		c0.7-0.1,1.4,0,2.1,0.4C286.3,60.8,286.4,61.1,286.4,61.2z"/>
	<path class="st0" d="M292.6,71.2c0.7-0.3,1.4-0.5,2.2-0.7c0.4-0.1,0.7-0.2,0.7-0.4c0-0.4-0.1-0.7-0.4-1l-1.4-2.6
		c-1.9-3.6-3.4-6.6-3.2-6.7c1.4,2.1,2.7,4.2,3.8,6.4l1.3,2.6c0.3,0.4,0.4,0.9,0.4,1.4c-0.1,0.3-0.3,0.5-0.5,0.6
		c-0.2,0.1-0.4,0.1-0.6,0.2C294.2,71.1,293.4,71.2,292.6,71.2z"/>
	<path class="st0" d="M286.3,56.8c-0.1,0.4-1.5,0.2-3.2,0.3s-3,0.6-3.2,0.2c-0.1-0.2,0.1-0.5,0.7-0.9c0.7-0.4,1.5-0.7,2.4-0.8
		c0.8-0.1,1.7,0,2.5,0.3C286,56.3,286.3,56.6,286.3,56.8z"/>
	<path class="st0" d="M299.4,55.1c-0.2,0.4-1.4,0.2-2.8,0.4s-2.5,0.6-2.8,0.3c-0.1-0.1,0-0.5,0.5-0.9c0.6-0.5,1.4-0.7,2.2-0.8
		c0.8-0.1,1.6,0,2.3,0.3C299.3,54.6,299.5,55,299.4,55.1z"/>
	<path class="st8" d="M272.3,68.1c-0.2,0-6.4-1-5.4,5.1s6.9,3.9,6.9,3.7S272.3,68.1,272.3,68.1z"/>
	<path class="st9" d="M271.6,74.9c0,0-0.1,0.1-0.3,0.2c-0.2,0.2-0.5,0.2-0.8,0.1c-0.9-0.4-1.5-1.2-1.6-2.2c-0.1-0.5-0.1-1.1,0.1-1.6
		c0-0.4,0.3-0.8,0.7-1c0.2-0.1,0.5,0,0.7,0.2c0.1,0.2,0.1,0.3,0.1,0.3s0.1-0.1,0-0.4c-0.1-0.1-0.2-0.3-0.3-0.3
		c-0.2-0.1-0.4-0.1-0.6-0.1c-0.5,0.2-0.9,0.6-1,1.1c-0.2,0.6-0.2,1.2-0.1,1.8c0.1,1.1,0.9,2.1,2,2.4c0.4,0.1,0.7-0.1,1-0.3
		C271.6,75,271.6,74.9,271.6,74.9z"/>
	<path class="st0" d="M288.5,72.7c0.2,0,0.5,1.4,1.8,2.1s2.8,0.4,2.9,0.6s-0.3,0.3-0.9,0.4c-0.8,0.2-1.7,0-2.4-0.4
		c-0.7-0.4-1.2-1-1.4-1.8C288.3,73.1,288.4,72.8,288.5,72.7z"/>
	<path class="st0" d="M312.3,44.9c-0.2-0.3-0.5-0.6-0.8-0.7c-0.8-0.2-1.6-0.2-2.4,0c-2,0.3-3.9,0.1-5.8-0.5c0.6-0.4,1.1-0.9,1.5-1.4
		c0.9-1.1,1.1-2.7,0.5-4c-0.1-0.3-0.3-0.4-0.6-0.5c-0.4-0.1-0.7,0.4-0.9,0.7c-0.6,1.1-1.7,1.8-2.9,1.8c-0.8,0.1-1.7,0-2.4-0.3
		l-0.1-0.1l-1.1-0.8l0,0c-2.1-1.7-4.4-2.9-7-3.7c-3.8-0.7-7.6-0.5-11.2,0.9c-3,1.3-5.4,4.3-5.3,7.5c-2-1.2-4.6-0.8-6.6,0.4h-0.1
		c-2.2,1.2-3.2,3.9-3.5,6.4c0,0.1,0,0.3,0,0.4c-0.6,1.4-1.5,2.6-2.7,3.6c-0.2,0.2-0.4,0.4-0.4,0.6s0.3,0.4,0.5,0.6
		c0.6,0.3,1.3,0.5,2,0.5c-0.1,0.6-0.3,1.2-0.5,1.8c-0.2,0.5-0.4,1.1-0.1,1.5c0.3,0.3,0.7,0.4,1.1,0.3c0.4-0.2,0.7-0.4,1-0.7
		c-0.2,0.7-0.3,1.4-0.5,2c0.9,0,1.8-0.2,2.5-0.6c0.9,2.2,1.9,6.3,2.7,7.7c1.6-0.2,2-0.5,2.9-0.3c1.1,0.2,1,2.1,2.3,1.4
		c0.7-0.4,1.3-3.2,1.5-4c0.8-5,0.5-10.1-0.8-15c0.8-1.2,1.9-2.2,3.1-3l-0.1,0.1c2.4-1.2,5.1-2.6,7.6-1.7c2,0.6,3.4,2.4,5,3.7
		c2.8,2.4,6.4,3.6,10.1,3.2c0.8,2.6,1.6,7,2.1,9.5l1.4-5.4l0,0c0.1-0.3,0.2-0.7,0.3-1v-0.1l0,0c0.1-0.5,0.3-1,0.5-1.5l0,0
		c0.7,0.5,1.7,0.3,2.2-0.4c0.4-0.6,0.4-1.5-0.2-2.1c-0.3-0.3-0.6-0.5-0.9-0.6c0.7,0.5,1.7,0.6,2.5,0.2c0.8-0.4,1.2-1.3,1.1-2.1
		c-0.2-0.6-0.6-1-1.2-1.2c1.1-0.1,2.2-0.5,3.1-1.2C312.1,46.3,312.6,45.6,312.3,44.9z"/>
	<path class="st1" d="M276.6,44.3c-0.3,0.3-0.5,0.6-0.8,1c-0.6,1-0.9,2.1-0.9,3.2c0,0.8,0,1.5,0.1,2.3c0.1,0.8,0.3,1.7,0.5,2.6
		c0.2,1,0.4,1.9,0.5,2.9c0,0.5,0,1.1,0,1.6c0,0.6-0.1,1.1-0.4,1.6c-0.3,0.4-0.7,0.6-1.2,0.6c-0.5,0-0.9-0.2-1.2-0.5
		c-0.6-0.6-1-1.3-1.2-2.1h0.2c-0.2,0.7-0.4,1.4-0.8,2c-0.3,0.6-0.9,1-1.5,1.2c-0.3,0.1-0.6,0.1-1,0c-0.3-0.1-0.5-0.3-0.7-0.5
		c-0.2-0.2-0.3-0.5-0.3-0.8c0-0.3,0-0.5,0.2-0.7l0.1,0.1c-0.4,0.7-1,1.3-1.7,1.7c-0.2,0.1-0.4,0.2-0.6,0.3l-0.2,0.1
		c0.1,0,0.1-0.1,0.2-0.1c0.1-0.1,0.3-0.2,0.5-0.4c0.7-0.5,1.2-1.1,1.6-1.8l0.1,0.1c-0.2,0.4-0.2,1,0.1,1.3c0.2,0.2,0.4,0.4,0.6,0.5
		c0.3,0.1,0.6,0.1,0.9,0c0.6-0.2,1.2-0.6,1.5-1.1c0.3-0.6,0.6-1.3,0.8-2l0.1-0.3l0.1,0.3c0.2,0.8,0.6,1.4,1.2,2
		c0.3,0.3,0.7,0.4,1.1,0.4c0.4,0,0.8-0.2,1-0.5c0.3-0.5,0.4-1,0.4-1.5c0-0.5,0-1,0-1.6c-0.1-1-0.3-1.9-0.5-2.9
		c-0.2-0.9-0.4-1.8-0.5-2.6c-0.1-0.8-0.1-1.6-0.1-2.3c0-1.1,0.4-2.3,1-3.2C276.1,44.8,276.3,44.5,276.6,44.3z"/>
	<path class="st1" d="M305.7,48.7L305.7,48.7l-0.3,0.3c-0.1,0.1-0.2,0.2-0.3,0.3c-0.2,0.1-0.3,0.3-0.5,0.4c-1.1,0.7-2.4,1.2-3.7,1.3
		c-2,0.2-4-0.2-5.7-1.1c-2.1-1.2-4-2.7-5.5-4.6c-0.8-1-1.5-2-2.3-2.9c-0.7-0.9-1.5-1.7-2.4-2.4c-0.8-0.6-1.8-1-2.8-1.2
		c-0.5-0.1-0.9,0-1.4,0.1c-0.4,0.1-0.8,0.2-1.2,0.4c-1.2,0.6-2.1,1.6-2.5,2.9c-0.1,0.5-0.2,0.9-0.2,1.4c0,0,0,0,0-0.1V43
		c0-0.4,0.1-0.7,0.2-1.1c0.2-0.5,0.4-1.1,0.8-1.5c0.5-0.6,1-1.1,1.7-1.5c0.4-0.2,0.8-0.4,1.2-0.5c0.5-0.1,1-0.1,1.4-0.1
		c1.1,0.1,2.1,0.5,2.9,1.2c0.9,0.7,1.8,1.5,2.5,2.4c0.8,0.9,1.5,2,2.3,2.9c1.5,1.9,3.3,3.4,5.4,4.6c1.7,0.9,3.7,1.3,5.6,1.2
		c1.3-0.1,2.6-0.5,3.7-1.2C305.3,49.1,305.6,48.6,305.7,48.7z"/>
	<path class="st1" d="M305.9,44.6c-0.1,0.1-0.2,0.2-0.3,0.3c-0.3,0.2-0.6,0.4-0.9,0.6c-0.5,0.3-0.9,0.5-1.4,0.7
		c-0.6,0.2-1.2,0.4-1.9,0.6c-0.7,0.1-1.3,0.2-2,0.2c-0.5,0-1.1-0.1-1.6-0.2c-0.4-0.1-0.7-0.1-1-0.3c-0.2-0.1-0.4-0.1-0.4-0.1
		s0.5,0.1,1.4,0.3c0.5,0.1,1,0.1,1.6,0.1c0.6,0,1.3-0.1,1.9-0.2c0.6-0.1,1.2-0.3,1.9-0.5c0.5-0.2,1-0.4,1.4-0.7
		C305.4,45,305.8,44.6,305.9,44.6z"/>
	<path class="st8" d="M390,158.1l3.5-0.5c1.1-1.1,2.3-2,3.6-2.8c2-1.2,3.7-1.2,4.2-0.2c0.5,1.1,0.2,2.4-0.8,3.1c-1,1-4.9,2-5.1,3.6
		s12.3,7,12.3,7l-9.9,11.3l-14.4-7.7l-0.7-1.2l-0.1-3.1L390,158.1z"/>
	<path class="st0" d="M289.6,189.2l4.4,51.4l-1.5,8.9c0,0-17.8,51.2-17.5,72.4l20.9-1c0,0,20.4-58,22-64.4
		c1.6-6.4,9.8-49.2,9.8-49.2l13.5,33.9l0.4,7.9l-7.8,49.1l24.2,1.3c0,0,9.9-55.8,8.9-63s-17-63.8-17-63.8l-8.3-7.2l-47.1,8
		L289.6,189.2z"/>
	<path class="st0" d="M355.7,284.5l-0.8,20.6c0,0,19.6,7.7,19.8,11.6l-37.9-0.1l-0.1-32.2L355.7,284.5z"/>
	<path class="st6" d="M343.2,303.4c-0.8,0.3-1.2,1.1-1.1,1.9c0.2,0.8,0.9,1.3,1.7,1.1c0.8-0.3,1.3-1.1,1.1-2c-0.3-0.8-1.3-1.4-1.9-1
		"/>
	<path class="st1" d="M336.8,316.6l0.1-3.2l36.3,1.2c0,0,1.7,0.8,1.5,2H336.8z"/>
	<path class="st7" d="M355.6,304.9c0,0.2-0.9,0.3-1.8,0.9s-1.4,1.4-1.6,1.4s0.1-1.2,1.2-1.9S355.6,304.8,355.6,304.9z"/>
	<path class="st7" d="M359.5,306.7c0,0.2-0.8,0.5-1.4,1.3s-0.8,1.7-1,1.7s-0.3-1.1,0.5-2.1S359.5,306.5,359.5,306.7z"/>
	<path class="st7" d="M361.8,311.7c-0.2,0-0.4-0.9,0-2s1.4-1.5,1.4-1.3s-0.5,0.7-0.8,1.6S361.9,311.7,361.8,311.7z"/>
	<path class="st7" d="M355.2,300.2c-0.1,0.2-0.9-0.1-2,0s-1.9,0.4-2,0.2s0.7-0.9,1.9-0.9S355.3,300.1,355.2,300.2z"/>
	<path class="st0" d="M293.8,306.2l0.1,23.7l5.5,18.7c0.4,1.3-0.4,2.6-1.6,3c-0.1,0-0.1,0-0.2,0l0,0c-0.8,0.2-1.6,0-2.1-0.6
		c-3.7-3.4-17.3-15.8-17.2-17.5c0.1-2-1.8-25-1.8-25L293.8,306.2z"/>
	<path class="st1" d="M297.7,351.6L278.3,332v1c0,0.9,0.4,1.7,0.9,2.3c1.5,1.7,5.9,6.4,16.2,15.8C296,351.6,296.9,351.8,297.7,351.6
		L297.7,351.6z"/>
	<g class="st10">
		<path class="st7" d="M282.9,324.2c0.6,0.4,0.8,1.3,0.5,1.9c-0.4,0.6-1.2,0.8-1.9,0.5c-0.6-0.4-0.8-1.3-0.5-2
			c0.5-0.6,1.4-0.7,2-0.3"/>
	</g>
	<path class="st7" d="M292,341.5c0.1,0.1,0.6-1.2,2-1.9c0.9-0.4,1.8-0.6,2.7-0.6c0-0.1-0.3-0.2-0.8-0.3c-0.7-0.1-1.5,0.1-2.1,0.4
		c-0.6,0.3-1.2,0.9-1.5,1.5C291.9,341.1,291.9,341.4,292,341.5z"/>
	<path class="st7" d="M293.8,344.6c0.7-0.4,1.4-0.8,2.1-1.1c0.8-0.2,1.5-0.3,2.3-0.4c-0.8-0.4-1.7-0.5-2.5-0.1
		C294.3,343.4,293.6,344.5,293.8,344.6z"/>
	<path class="st7" d="M288.7,337.5c1-0.7,2-1.3,3.1-1.9c1.1-0.4,2.3-0.7,3.5-0.9C292.7,334.3,290.2,335.3,288.7,337.5L288.7,337.5z"
		/>
	<path class="st7" d="M288.1,330.3c0.1,0.1,1.4-0.5,3.1-0.6s3.1,0.3,3.1,0.1c-0.9-0.6-2.1-0.8-3.1-0.6
		C290,329.2,288.9,329.6,288.1,330.3z"/>
	<path class="st7" d="M287.9,323.3c1-0.4,2.1-0.6,3.2-0.7c1.1,0.1,2.1,0.3,3.2,0.7c0-0.1-0.2-0.3-0.8-0.6c-1.5-0.8-3.3-0.8-4.8,0
		C288.1,323,287.8,323.3,287.9,323.3z"/>
	<path class="st1" d="M266.4,100c0,0-12.7,7.6-3.5,25.9c11.2,22.4,21.9,53.9,25.6,56c1.5,0.9,8.5-2.7,8.5-2.7l5.6-10.4l-14.8-38.7
		l-9.7-22.4L266.4,100z"/>
	<path class="st1" d="M275.6,94.1l-9.2,5.9l24.5,43.3l-3.5,38.7l5.5,3.1l57.3-7.9l1.9-2.6l-6.3-18.2l-8.4-20.4
		c0,0-8.3-18.5-13.2-26.4s-10.1-15.9-10.1-15.9l-14-1l-1.7-1.9c0,0-2.1,3.8-7.9,4.2c-4.7,0.3-14.6-2.2-14.6-2.2L275.6,94.1z"/>
	<path class="st1" d="M390,158.1c0,0-33.6-26.9-36.4-30.1c-2.7-3.1-26.1-27.8-26.1-27.8s-8.5-8.2-13.5-6.6c-6,2,6,30.9,6,30.9
		s24.7,20.5,28.7,24.4s28.1,19.4,28.1,19.4l5.7-0.8L390,158.1z"/>
	<path class="st0" d="M281,117.3c0.1,0.2,0.2,0.3,0.2,0.5c0.2,0.4,0.4,0.9,0.6,1.5c0.5,1.3,1.3,3.2,2.3,5.5c2,4.7,4.8,11,8,18.1
		s5.9,13.5,7.7,18.2c0.9,2.4,1.6,4.3,2.1,5.6c0.2,0.6,0.4,1.1,0.5,1.5c0.1,0.2,0.1,0.4,0.1,0.5c-0.1-0.2-0.2-0.3-0.2-0.5l-0.6-1.5
		c-0.5-1.3-1.3-3.2-2.2-5.6c-1.9-4.7-4.7-11.1-7.8-18.1s-6-13.5-7.9-18.2c-1-2.4-1.7-4.3-2.2-5.6c-0.2-0.6-0.4-1.1-0.5-1.5
		C281.1,117.7,281,117.5,281,117.3z"/>
	<path class="st0" d="M322.1,106.4c0,0,0.1,0.1,0.3,0.3c0.3,0.3,0.5,0.6,0.7,1c0.6,0.9,1.4,2.2,2.3,3.8c1.8,3.3,4.1,7.9,6.6,13
		c2.5,5.1,4.6,9.8,6.1,13.2c0.8,1.7,1.4,3.1,1.8,4.1c0.2,0.5,0.4,1,0.6,1.5c-0.3-0.4-0.6-0.9-0.8-1.4l-1.9-4l-6.3-13.2
		c-2.5-5.1-4.8-9.8-6.5-13.1c-0.9-1.7-1.6-3-2.1-3.9S322.1,106.4,322.1,106.4z"/>
	<g class="st2">
		<path d="M288.7,135.6c0,0-2.4-13.3-1-21.1s5.4-19.1,5.4-19.1l7-3l36.5,17.7l2.7,3.3l-4.8,15.3l3.6,28L288.7,135.6z"/>
	</g>
	<path class="st3" d="M297.4,112.2c2.7-50.1,30.9-77.1,66.6-75.2c36,2,60.8,31.8,58.1,82s-30.7,77.1-66.6,75.2
		C319.8,192.3,294.7,162.4,297.4,112.2z M388.3,117.2c1.9-34.5-9-49.5-25.8-50.4c-16.6-0.9-29,12.8-30.9,47.3s9,49.5,25.6,50.4
		C374,165.4,386.4,151.7,388.3,117.2L388.3,117.2z"/>
	<g class="st2">
		<path d="M297.4,112.2c2.7-50.1,30.9-77.1,66.6-75.2c36,2,60.8,31.8,58.1,82s-30.7,77.1-66.6,75.2
			C319.8,192.3,294.7,162.4,297.4,112.2z M388.3,117.2c1.9-34.5-9-49.5-25.8-50.4c-16.6-0.9-29,12.8-30.9,47.3s9,49.5,25.6,50.4
			C374,165.4,386.4,151.7,388.3,117.2L388.3,117.2z"/>
	</g>
	<path class="st3" d="M287.1,112.3c2.7-50.1,30.9-77.1,66.6-75.2c36,2,60.8,31.8,58.1,82s-30.7,77.1-66.6,75.2
		C309.5,192.3,284.4,162.4,287.1,112.3z M378,117.3c1.9-34.5-9-49.5-25.8-50.4c-16.6-0.9-29,12.8-30.9,47.3s9,49.5,25.6,50.4
		C363.7,165.5,376.1,151.8,378,117.3L378,117.3z"/>
	<path class="st8" d="M324.9,188.1l-6.2-3.8c0,0-6.4-4.2-6.7-4.8c-0.5-1-0.7-2.1-0.8-3.3c0-0.9,2.9-3,3.2-4.8s-1.6-3.5-2.2-3.8
		s-1.4,0.8-1.5,1.5s-1.3,1.9-3.1,2.3s-4.2,2.7-4.2,2.7l-5.4,10.1c0.9,1.7,11.9,5.9,12.3,6s12.1,0.4,13.3,0c1-0.2,1.7-1.2,1.5-2.2
		C324.9,188.2,324.9,188.2,324.9,188.1z"/>
	<path class="st8" d="M412.4,167.1c0.1,1.7-3.3,1.6-3.3,1.6c0.4,0.8-1.4,2.8-2.5,2.4c0.3,0.6,0.6,0.8,0.6,1.5c0,0.7-0.4,1.3-1,1.7
		c-0.6,0.4-1.4,0.3-1.9-0.2c0.2,1-0.2,2.1-1.1,2.7c-0.5,0.3-1.2,0.5-1.8,0.4c-0.3-0.1-0.6-0.2-0.9-0.3c-0.1,0-0.2-0.1-0.3-0.2
		c0,0-0.1-0.1-0.1-0.1c-0.1-0.2-0.1-0.5-0.2-0.7l-0.1-0.3c-0.2-0.4-0.4-0.8-0.7-1.1c-0.2-0.1-0.3-0.3-0.4-0.5
		c-0.1-0.1-0.1-0.2-0.1-0.4c-0.4-0.8-1-1.4-1.7-1.9c-0.7-0.6-1.3-1.4-1.6-2.2c-0.3-0.9,0.2-1.9,1.1-2.2c-0.5-0.4-0.6-1.1-0.3-1.6
		c0.3-0.5,0.9-0.8,1.5-0.8c0.6,0,1.2,0.2,1.7,0.5c-0.5-0.5-0.5-1.4,0-1.9c0.5-0.5,1.3-0.7,1.9-0.5c0.7,0.2,1.3,0.5,1.8,1
		c0.5,0.4,2.9,2.2,3.5,2.5l1.4-1.4l0.2-0.2c1.2,0.4,1.6,0.5,2.6,0.9C411.7,166,412.4,166.4,412.4,167.1z"/>
	<path class="st8" d="M399.3,178.8c-0.4,0.5-0.9,0.7-1.5,0.8c-0.8-0.2-1.6-0.7-2.1-1.4l1.2-1.6l0.3-0.4c0.1-0.5-0.6-1-0.8-1.4
		c-0.3-0.8,0-1.6,0.8-2c0.7-0.3,1.6-0.1,2.2,0.4c0.6,0.5,0.9,1.3,1,2.1C400.5,176.6,400.1,177.9,399.3,178.8z"/>
	<path class="st9" d="M404.5,174.1c-1.1-1.4-2.4-2.6-3.8-3.7c-1.3-1.2-2.7-2.4-4.2-3.3C398.9,169.7,401.6,172,404.5,174.1z"/>
	<path class="st9" d="M406.7,171.1c-0.9-1.3-2.1-2.5-3.4-3.5c-1.2-1.1-2.6-2-4.1-2.7c1.2,1.1,2.4,2.1,3.7,3.1
		C404.1,169.2,405.4,170.2,406.7,171.1z"/>
	<path class="st9" d="M408.9,168.2c-0.8-1.1-1.8-2-2.9-2.8c-1-0.9-2.1-1.6-3.3-2.2c0.9,1,1.9,1.9,3,2.6
		C406.6,166.8,407.7,167.5,408.9,168.2z"/>
	<path class="st9" d="M399.8,177.7c0,0,0.4-0.2,0.6-0.7c0.2-0.7,0.2-1.6-0.2-2.2c-0.3-0.7-0.8-1.3-1.3-1.8c-0.5-0.4-1-0.2-0.9-0.1
		s0.4,0,0.7,0.4c0.4,0.5,0.8,1.1,1.1,1.8c0.3,0.6,0.4,1.3,0.3,1.9C399.9,177.4,399.8,177.6,399.8,177.7z"/>
</g>
<g id="freepik--character-1--inject-92">
	<path class="st0" d="M178.8,295.2l-3.2,19c0,0,19.1,7.8,19.2,11.5l-37.1-0.6l4.6-31.3L178.8,295.2z"/>
	<path class="st6" d="M164.1,312.4c-0.8,0.3-1.2,1-1.1,1.8c0.2,0.8,0.9,1.3,1.7,1.1c0.8-0.3,1.3-1.1,1.1-1.9c-0.2-0.8-1.1-1.2-1.8-1
		c0,0,0,0,0,0"/>
	<path class="st1" d="M157.7,325.2l0.5-3.1l35.2,1.7c0,0,1.6,0.8,1.4,2L157.7,325.2z"/>
	<path class="st7" d="M176.1,314c0,0.2-0.9,0.3-1.8,0.9s-1.4,1.4-1.6,1.3s0.1-1.2,1.2-1.9S176.2,313.9,176.1,314z"/>
	<path class="st7" d="M180,315.8c0,0.2-0.8,0.5-1.4,1.3s-0.8,1.6-1,1.6s-0.3-1.1,0.5-2.1S180,315.6,180,315.8z"/>
	<path class="st7" d="M182.1,320.7c-0.2,0-0.4-0.9,0.1-2s1.3-1.4,1.4-1.3s-0.5,0.7-0.8,1.6S182.3,320.7,182.1,320.7z"/>
	<path class="st7" d="M175.9,309.4c-0.1,0.2-0.9-0.1-1.9,0s-1.8,0.4-1.9,0.2s0.7-0.8,1.9-0.9S175.9,309.3,175.9,309.4z"/>
	<path class="st0" d="M125.1,298.2l-9.8,17.6c0,0,13.6,15.5,12.1,18.9l-32.9-17l14.3-28L125.1,298.2z"/>
	<path class="st6" d="M105.9,309c-0.8-0.1-1.5,0.4-1.8,1.1c-0.2,0.8,0.2,1.5,1,1.8c0.8,0.1,1.6-0.4,1.9-1.2c0.1-0.8-0.5-1.7-1.2-1.7
		"/>
	<path class="st1" d="M94.5,317.6l1.5-2.8l31,17.4c0,0,1.1,1.4,0.4,2.4L94.5,317.6z"/>
	<path class="st7" d="M115.9,315.9c-0.1,0.2-0.9-0.2-2,0s-1.9,0.6-2,0.5s0.6-1,1.9-1.1S116.1,315.7,115.9,315.9z"/>
	<path class="st7" d="M118.6,319.2c-0.1,0.2-0.9,0.1-1.8,0.5s-1.5,1.1-1.6,1s0.2-1.1,1.4-1.6S118.7,319,118.6,319.2z"/>
	<path class="st7" d="M118.3,324.6c-0.2,0,0-1,0.9-1.7s1.8-0.7,1.8-0.5s-0.7,0.4-1.4,1S118.5,324.6,118.3,324.6z"/>
	<path class="st7" d="M117.8,311.6c-0.1,0.1-0.8-0.5-1.7-0.9s-1.8-0.5-1.8-0.6s1-0.5,2.1,0S117.9,311.5,117.8,311.6z"/>
	<path class="st0" d="M148.1,181.8c0,0,6.6,64.1,4.7,71.5c-2,7.4-33.7,64.1-33.7,64.1l-21.9-12.2c0,0,26.6-51.3,26.3-53.5
		s0.7-8.3,0.7-8.3l-14.7-49.2l2.9-21.1l26-2.6L148.1,181.8z"/>
	<path class="st0" d="M130.7,205.9c0.7,2,35.9,42.2,35.9,42.2c-0.1,0.9,0,1.7,0.4,2.5c0.8,1,1.8,1.7,3,2.1l-14,58l24.5,2.3
		c0,0,14.6-58,14-65.3S159,183.6,159,183.6l-25-1.4L130.7,205.9z"/>
	<path class="st1" d="M148.8,195.8c0,0.5-0.1,1.1-0.2,1.6c-0.2,1.5-0.2,2.9-0.1,4.4c0.4,4.8,1.1,9.6,2.1,14.4
		c1,4.8,1.7,9.6,2.2,14.4c0.1,1.5,0.1,3-0.1,4.4c-0.1,0.5-0.2,1.1-0.3,1.6c0-0.5,0.1-1.1,0.1-1.6c0.1-1.5,0-2.9-0.1-4.4
		c-0.3-3.7-1.3-8.8-2.3-14.3c-1-4.8-1.7-9.6-2-14.4c-0.1-1.5,0-3,0.3-4.4C148.4,196.8,148.6,196.3,148.8,195.8z"/>
	<path class="st4" d="M201,97c0,0,4.5-7.2,8.6-7.8s11.2,0,11.2,0l-3.8,15.4l-8.5,1.5L201,97z"/>
	<polygon class="st1" points="135.8,108.8 167.4,110.7 199.9,95.6 209.9,107.9 170.1,129 148.2,131.8 	"/>
	<path class="st3" d="M234.3,141.5l-25.1-4.4l-5.7,32.4l-34.8-6.1l5.7-32.4l-83-14.5l4.2-24l89.8-85.1l37.4,6.6l-83.6,80.9l41.4,7.2
		l5.1-28.9l33.7,5.9l-5.1,28.9l25.1,4.4L234.3,141.5z"/>
	<g class="st2">
		<path d="M234.3,141.5l-25.1-4.4l-5.7,32.4l-34.8-6.1l5.7-32.4l-83-14.5l4.2-24l89.8-85.1l37.4,6.6l-83.6,80.9l41.4,7.2l5.1-28.9
			l33.7,5.9l-5.1,28.9l25.1,4.4L234.3,141.5z"/>
	</g>
	<path class="st3" d="M225.8,140.3l-25.1-4.4l-5.7,32.4l-34.8-6.1l5.7-32.4l-83-14.5l4.2-24l89.8-85.1l37.4,6.6l-83.7,80.9l41.4,7.2
		l5-28.9l33.7,5.9l-5.1,28.9l25.1,4.4L225.8,140.3z"/>
	<g class="st2">
		<path d="M150.8,125c0,0-3.6-9.8-6.8-13.6c-2.4-3-4.7-6-6.8-9.2l16.2-7.1l-8.4-6.5l-14.2,6.5l-0.9,12.8l17.2,17.9L150.8,125z"/>
	</g>
	<path class="st0" d="M139,60.3c3.3,2.8,5,6.9,4.7,11.2c-0.2,2-0.8,4.4,0.5,5.9s3.9,1.6,5.1,3.2c1.4,1.9,0.1,4.7,0.6,7
		c0.5,2.3,2.7,3.8,5,3.6c-2.7,2.1-5.9,3.4-9.2,3.8l-2.5-3.3c0.9,1.3,0.7,3-0.3,4.2c-1.1,1.1-2.4,1.9-3.9,2.2c-7,2-14.6,0.6-20.5-3.7
		"/>
	<path class="st0" d="M100.2,77.6c0.7-1.5,1.3-3,1.8-4.6c0.8-3.4-0.8-7.4,0.9-10.5c1.2-2.2,3.8-3.2,6.2-3.9s5-1.3,6.9-3
		c1.3-1.3,2.1-3,3.5-4.3c1.9-1.8,4.7-2.4,7.3-2.5c2.7-0.2,5.4,0.3,7.9,1.4c2.5,1.2,4.2,3.5,4.8,6.2c0,1.3,0.1,2.6,0.4,3.9
		c0.4,1.4,1.5,2.5,2.1,3.8c1.3,2.9,0.5,6.3-1.9,8.3l-19,23.6c-3.9,1.4-13.3-0.6-16.3-3.5S98.9,81.5,100.2,77.6z"/>
	<path class="st4" d="M139.7,69.3c-0.7-5.4-4.7-11.9-10.1-11.1l-16.8,5.3c-1.7,0.3-2.8,1.8-2.7,3.4l4.1,39.4c0,0-1.2,1-2.1,0.7
		c-0.1-0.1-0.2,0-0.3,0.1c0,0.1,0,0.2,0,0.2c1.9,3,11.1,15.8,21,12.1c2.2-0.8-0.1-7.7,0.2-10.3l-0.2-6.5c-0.1-3.3-0.2-4.7-0.2-4.6
		s6.9-1.6,7.9-10.8C141.1,82.8,140.4,75.4,139.7,69.3z"/>
	<path class="st0" d="M138.4,77.6c0,0.6-0.4,1.2-1.1,1.2c-0.6,0.1-1.2-0.3-1.3-0.9c0,0,0,0,0-0.1c0-0.6,0.4-1.2,1.1-1.2
		C137.7,76.5,138.3,77,138.4,77.6C138.4,77.6,138.4,77.6,138.4,77.6z"/>
	<path class="st0" d="M127,78.2c0,0.6-0.4,1.2-1.1,1.2c-0.6,0.1-1.2-0.4-1.3-1c0,0,0,0,0,0c0-0.6,0.4-1.2,1.1-1.2
		C126.4,77.1,126.9,77.5,127,78.2C127,78.1,127,78.1,127,78.2z"/>
	<path class="st0" d="M138.9,73.8c-0.1,0.2-1.2-0.5-2.6-0.3s-2.3,1.1-2.4,0.9s0-0.4,0.4-0.9c0.5-0.5,1.2-0.9,1.9-1
		c0.7-0.1,1.5,0.1,2.1,0.5C138.7,73.4,138.9,73.7,138.9,73.8z"/>
	<path class="st0" d="M126.6,74.6c-0.2,0.2-1.2-0.6-2.7-0.6s-2.5,0.8-2.7,0.6s0.1-0.4,0.5-0.8c0.6-0.5,1.4-0.7,2.1-0.8
		c0.8,0,1.5,0.2,2.1,0.7C126.5,74.2,126.7,74.5,126.6,74.6z"/>
	<path class="st0" d="M131,83.3c0.6-0.2,1.3-0.4,2-0.5c0.3-0.1,0.6-0.1,0.7-0.4c0-0.3-0.1-0.7-0.3-0.9l-1.1-2.4
		c-1-2-1.8-4.1-2.5-6.3c1.2,1.9,2.2,4,3,6.1l1.1,2.4c0.2,0.4,0.3,0.8,0.2,1.2c-0.1,0.2-0.3,0.4-0.5,0.5c-0.2,0.1-0.4,0.1-0.5,0.1
		C132.4,83.3,131.7,83.3,131,83.3z"/>
	<path class="st5" d="M132.8,98.2c-4.3,0.3-8.6-0.6-12.4-2.6c0,0,3.4,6.2,12.5,4.9L132.8,98.2z"/>
	<path class="st5" d="M127.1,86.9c0.2-0.3,0.4-0.6,0.7-0.8c0.3-0.2,0.7-0.2,1.1-0.1c0.5,0.1,1,0.4,1.4,0.8c0.4,0.4,0.5,1,0.3,1.5
		l0,0c-0.1,0.5-0.9,0.8-1.5,0.9c-0.5,0.1-1.1-0.1-1.6-0.4c-0.4-0.2-0.7-0.6-0.8-1C126.8,87.5,126.9,87.2,127.1,86.9z"/>
	<path class="st0" d="M127.4,85.1c0.2,0,0.3,1.3,1.5,2.2c1.2,0.9,2.7,0.7,2.7,0.9s-0.3,0.3-0.9,0.3c-0.8,0.1-1.6-0.2-2.2-0.6
		c-0.6-0.5-1-1.1-1.2-1.9C127.2,85.5,127.3,85.1,127.4,85.1z"/>
	<path class="st0" d="M126.6,70.6c-0.1,0.3-1.4,0.2-2.8,0.5s-2.6,0.7-2.9,0.4c-0.1-0.1,0.1-0.5,0.6-0.8c0.6-0.5,1.3-0.8,2.1-0.9
		c0.8-0.1,1.5-0.1,2.2,0.1C126.4,70.2,126.7,70.4,126.6,70.6z"/>
	<path class="st0" d="M137.9,68.5c-0.2,0.3-1.2,0.1-2.4,0.1s-2.2,0.3-2.4,0s0-0.4,0.5-0.7c0.6-0.4,1.3-0.6,2-0.6
		c0.7,0,1.4,0.1,2,0.5C137.8,68,138,68.3,137.9,68.5z"/>
	<path class="st0" d="M109.1,64.8c1-1.2,2.3-2.1,3.9-2.4c6.3-2.3,12.8-3.8,19.4-4.5c0.8,1.4,0,3.2-1.3,4.2c-1.3,0.8-2.8,1.5-4.4,1.8
		c-1.6,0.4-2.9,1.4-3.7,2.8c-0.7,1.5-0.2,3.4-0.8,5c-1,2.7-4.9,3.5-5.9,6.2c-0.8,2.1,0.4,4.3,0.6,6.5c0.5,4.3-2.5,8.2-6.8,8.7
		c-0.3,0-0.7,0.1-1,0.1c-0.3-7.8-0.6-15.7-0.9-23.5C108.2,67.9,108.2,66.1,109.1,64.8z"/>
	<path class="st0" d="M92.9,84.2c1.3-1.1,2.8-2,3.4-3.6c0.8-2.3-1-5,0.2-7.1c1.1-1.9,4.3-1.7,5.4-3.7c0.8-1.5-0.1-2.9,0.3-4.2
		c0.6-1.5,2.1-2.4,3.6-2.3L116.1,79c0.9,5.2,1.8,8,0.7,11c-0.8,1.6-1.3,3.3-1.8,5c-0.4,1.8,0.2,3.6,1.6,4.8
		c-6.4,0.4-12.3-3.1-17.8-6.4L93,89.9c-0.6-0.3-1.2-0.8-1.6-1.4C90.6,87.1,91.7,85.3,92.9,84.2z"/>
	<path class="st1" d="M98.7,91.9c0.2,0.1,0.4,0.1,0.7,0.1c0.7,0.1,1.3,0,2-0.1c1-0.2,2-0.7,2.8-1.4c1-1,1.7-2.3,1.9-3.7
		c0.1-0.8,0.1-1.7-0.2-2.5c-0.3-0.8-0.7-1.7-1.1-2.4c-0.5-0.8-0.9-1.6-1.2-2.5c-0.3-0.9-0.1-1.9,0.4-2.7c0.6-0.8,1.7-0.9,2.7-1.3
		c0.6-0.2,1-0.5,1.4-1c0.3-0.5,0.5-1.1,0.5-1.7c-0.1-1.1-0.3-2.3-0.7-3.4c-0.1-0.5-0.1-1.1,0-1.6c0.1-0.5,0.5-1,0.9-1.3
		c1-0.5,2.1-0.8,3.2-0.8c1.2,0,2.3-0.3,3.3-0.9c1-0.6,1.8-1.4,2.3-2.4c0.5-1,0.8-2,0.9-3.1c0.1-1,0.4-1.9,0.7-2.9
		c0.3-0.8,0.9-1.6,1.5-2.2c2.3-2.1,5.7-2.5,8.4-1c0.9,0.5,1.7,1.1,2.4,1.9c0.6,0.7,1.1,1.4,1.5,2.2c0,0,0-0.1,0-0.2
		s-0.1-0.3-0.2-0.5c-0.3-0.6-0.7-1.2-1.1-1.7c-0.7-0.8-1.5-1.5-2.4-2c-1.2-0.7-2.6-1.1-4.1-1c-1.7,0.1-3.4,0.8-4.7,2
		c-0.7,0.7-1.3,1.5-1.6,2.3c-0.3,0.9-0.6,1.9-0.7,2.9c-0.1,1-0.4,2-0.9,2.9c-0.5,0.9-1.3,1.7-2.2,2.2c-1,0.5-2,0.8-3.1,0.9
		c-1.2,0-2.4,0.3-3.4,0.9c-0.5,0.3-0.9,0.9-1.1,1.5c-0.1,0.6-0.1,1.2,0,1.8c0.3,1.1,0.5,2.2,0.7,3.3c0,0.5-0.1,1-0.4,1.5
		c-0.3,0.4-0.7,0.7-1.2,0.9c-0.5,0.2-1,0.3-1.5,0.5c-0.5,0.2-1,0.5-1.3,0.9c-0.6,0.9-0.8,2-0.4,3c0.3,0.9,0.7,1.8,1.2,2.6
		c0.5,0.7,0.8,1.5,1.1,2.3c0.6,2.1,0,4.4-1.6,5.9c-0.8,0.7-1.7,1.2-2.7,1.5C100.5,92.1,99.6,92.1,98.7,91.9z"/>
	<path class="st0" d="M90.4,80.7c-0.1,0.2-0.2,0.3-0.2,0.5c-0.1,0.5,0,1.1,0.2,1.6c0.2,0.4,0.5,0.7,0.8,0.9c0.4,0.2,0.9,0.4,1.4,0.4
		c1.2,0,2.3-0.7,2.8-1.7c0.3-0.6,0.5-1.3,0.5-1.9c0-0.7-0.1-1.4-0.4-2.1c-0.5-1.4-1.4-2.8-1.4-4.4c0-0.8,0.2-1.6,0.8-2.2
		c0.7-0.5,1.5-0.8,2.3-0.7c0.9,0.1,1.9,0,2.8-0.2c0.5-0.2,0.9-0.5,1.1-0.9c0.3-0.4,0.4-0.9,0.5-1.4c0.1-1,0-1.9-0.2-2.8
		c-0.1-0.9-0.1-1.8,0.2-2.6c0.5-1.6,1.6-3,3.1-3.9c1.4-0.7,2.9-1,4.5-0.9c1.4,0,2.7-0.2,4.1-0.6c1.1-0.4,2.1-1,2.9-1.8
		c0.6-0.6,1.2-1.3,1.6-2c0.4-0.6,0.7-1.3,0.8-2c-0.2,0.7-0.5,1.3-0.9,1.9c-1,1.7-2.6,2.9-4.5,3.6c-1.3,0.4-2.6,0.5-4,0.5
		c-1.6-0.1-3.2,0.2-4.6,0.9c-1.5,0.9-2.7,2.3-3.2,4c-0.3,0.9-0.3,1.8-0.2,2.8c0.2,0.9,0.2,1.8,0.2,2.8c-0.1,0.9-0.6,1.7-1.4,2.1
		c-0.9,0.2-1.8,0.3-2.6,0.2c-0.9-0.1-1.9,0.2-2.6,0.8c-0.6,0.7-0.9,1.5-0.9,2.4c0,0.8,0.2,1.6,0.5,2.4c0.3,0.7,0.6,1.4,0.9,2.1
		c0.3,0.6,0.4,1.3,0.4,2c0,0.6-0.1,1.3-0.4,1.8c-0.5,1-1.5,1.6-2.6,1.6c-1.3,0-2.3-1-2.4-2.3c0-0.1,0-0.3,0-0.4
		C90.3,81,90.3,80.9,90.4,80.7z"/>
	<path class="st0" d="M157.7,85.9c0.2,0.5,0.2,1.1,0,1.7c-0.2,0.6-0.7,1.1-1.4,1.3c-0.8,0.2-1.7,0-2.3-0.7c-0.3-0.4-0.5-0.9-0.5-1.4
		c0-0.5,0.1-1.1,0.3-1.6c0.6-1.1,0.9-2.4,1-3.7c-0.1-1.5-0.8-2.8-1.9-3.7c-0.6-0.5-1.3-0.9-2-1.1c-0.7-0.2-1.5-0.3-2.3-0.4
		c-0.7,0-1.5-0.1-2.2-0.3c-0.7-0.2-1.3-0.5-1.7-1.1c-0.4-0.6-0.6-1.2-0.6-1.9c0-0.7,0-1.3,0.2-2c0.4-1.2,0.6-2.5,0.6-3.7
		c0-1.1-0.4-2.2-1.1-3.1c-0.6-0.7-1.3-1.3-2.1-1.8c-0.6-0.4-1.1-0.7-1.6-1.2c-0.4-0.4-0.8-0.8-1-1.4c0,0,0,0,0,0.1
		c0,0.1,0.1,0.2,0.1,0.3c0.2,0.4,0.5,0.8,0.8,1.1c0.5,0.5,1,0.9,1.6,1.2c0.8,0.5,1.4,1.1,1.9,1.8c0.6,0.9,1,1.9,1,3
		c-0.1,1.2-0.3,2.5-0.7,3.6c-0.2,0.7-0.2,1.4-0.2,2.1c0,0.7,0.2,1.5,0.6,2.1c0.5,0.6,1.1,1.1,1.9,1.2c0.7,0.2,1.5,0.3,2.3,0.3
		c0.7,0,1.5,0.1,2.2,0.4c0.7,0.2,1.3,0.6,1.9,1c1,0.9,1.7,2.1,1.8,3.5c0.1,1.3-0.6,2.4-1,3.5c-0.2,0.6-0.3,1.1-0.3,1.7
		c0,0.6,0.2,1.1,0.6,1.5c0.7,0.7,1.7,1,2.6,0.7c0.7-0.2,1.2-0.8,1.4-1.5c0.2-0.4,0.2-0.9,0.1-1.3C157.8,86.1,157.8,86,157.7,85.9z"
		/>
	<path class="st4" d="M223.1,88.5c0.9,1.3-1.9,2.9-1.9,2.9c0.7,0.5,0.3,3-0.9,3.2c0.5,0.3,0.9,0.3,1.2,0.9c0.3,0.6,0.3,1.3,0,1.8
		c-0.3,0.6-1,0.9-1.6,0.8c0.7,0.7,0.9,1.8,0.5,2.7c-0.3,0.5-0.7,1-1.3,1.2c-0.3,0.1-0.6,0.2-0.9,0.2c-0.1,0-0.2,0-0.3,0
		c0,0-0.1-0.1-0.1-0.1c-0.2-0.1-0.3-0.3-0.5-0.5l-0.2-0.2c-0.4-0.2-0.7-0.4-1.1-0.5c-0.2,0-0.4-0.1-0.6-0.1
		c-0.1-0.1-0.2-0.2-0.3-0.2c-0.7-0.4-1.5-0.7-2.3-0.7c-0.9-0.1-1.7-0.4-2.4-1c-0.7-0.6-0.8-1.7-0.2-2.4c-0.6-0.1-1-0.5-1.1-1.1
		c0-0.6,0.3-1.1,0.8-1.4c0.5-0.3,1.1-0.4,1.6-0.4c-0.7-0.2-1.1-0.9-0.9-1.5c0.2-0.7,0.7-1.2,1.3-1.4c0.6-0.2,1.3-0.2,2-0.1
		c0.7,0.1,3.4,0.3,4.1,0.3l0.5-1.8l0.1-0.2c1.2-0.3,1.5-0.4,2.6-0.6C221.9,87.9,222.7,87.9,223.1,88.5z"/>
	<path class="st4" d="M218.3,104.6c-0.1,0.6-0.4,1.1-0.8,1.4c-0.8,0.2-1.6,0.2-2.4-0.1l0.2-1.9l0.1-0.5c-0.2-0.4-1-0.5-1.3-0.7
		c-0.6-0.5-0.8-1.3-0.4-2c0.5-0.6,1.2-0.9,2-0.8c0.7,0.2,1.4,0.6,1.8,1.2C218.2,102.3,218.5,103.5,218.3,104.6z"/>
	<path class="st5" d="M220.2,98.2c-3.3-0.9-6.6-1.5-10.1-1.7c1.6,0.5,3.3,0.9,5,1.1C216.8,97.9,218.5,98.1,220.2,98.2z"/>
	<path class="st5" d="M220.5,94.6c-1.4-0.6-2.9-1-4.5-1.1c-1.5-0.3-3.1-0.3-4.6-0.1c1.5,0.3,3,0.5,4.6,0.6
		C217.4,94.3,218.9,94.5,220.5,94.6z"/>
	<path class="st5" d="M220.7,91.2c-1.2-0.5-2.5-0.7-3.7-0.8c-1.3-0.2-2.5-0.2-3.8-0.1c1.2,0.4,2.5,0.6,3.8,0.6
		C218.2,91.1,219.5,91.2,220.7,91.2z"/>
	<path class="st5" d="M218.2,103.4c0.1,0,0.2-0.3,0.1-0.9c-0.2-0.7-0.7-1.3-1.3-1.7c-0.6-0.4-1.3-0.7-2-0.8
		c-0.6-0.1-0.9,0.3-0.8,0.4s0.3-0.1,0.8,0c0.6,0.2,1.2,0.5,1.8,0.9c0.5,0.3,1,0.8,1.2,1.4C218.1,103.1,218.1,103.4,218.2,103.4z"/>
	<path class="st1" d="M112.9,101.8c-5.8,5.3-9.7,7.3-10.4,12.7c-0.5,4.8,0,9.6,1.5,14.2c3.1,9.3,7.1,20.2,9.6,25.4
		c0.9,1.9,1,4,0.4,6c-1.4,4.5-5,13.2-4.4,30.8l54.1-3.8c0,0-9.4-21.7-11.5-32.5c-0.2-1.3,1.2-16.9,0.5-20
		c-2.6-11.5-15.1-22.9-19.2-29l-0.5-2l-19.8-3.3L112.9,101.8z"/>
	<g class="st2">
		<path d="M112.7,148.5c0,0,6.7,14,10.1,15.3s31.1-2.5,31.1-2.5l-1.7-6.6L112.7,148.5z"/>
	</g>
	<path class="st0" d="M137,110.3c0.3,0.2,0.6,0.5,0.9,0.8c0.6,0.6,1.3,1.4,2.2,2.5c1.8,2.1,4,5.4,6.5,8.8c2.2,2.9,4,6.2,5.2,9.6
		c0.4,1.1,0.6,2.1,0.9,3.2c0.1,0.4,0.1,0.8,0.1,1.2c-0.1,0-0.3-1.7-1.3-4.3c-1.3-3.4-3.1-6.6-5.3-9.5c-2.5-3.5-4.6-6.7-6.4-8.9
		c-0.9-1.1-1.6-2-2.1-2.6C137.5,110.9,137.2,110.6,137,110.3z"/>
	<path class="st1" d="M105.9,108c0,0-11.7,7.8-4.7,21.5c6.3,12.2,16.4,27.1,20.5,29.5s48.3-7.2,48.3-7.2l-1.4-17.1l-38,8l-10.9-20.4
		C119.8,122.3,115.5,105.1,105.9,108z"/>
	<path class="st4" d="M168.9,137.1c0,0,0.4-1.8,3.7-4c2-1.2,3.6-3,4.7-5c0.6-1,1.6-2.8,2.5-2.3s0.8,1.9,0.1,4.1
		c-0.6,2.2-2.5,4-1.8,4.8s10.7-0.2,13.6-0.8s4.3-0.3,3.9,1.1s-9.5,1.8-10.1,3.1s0.4,1.1,1.4,1.4s10.8-0.7,11,1.1s-1,1.9-1,1.9
		s0.3,2.1-1.3,2.7s-11.5-0.6-11.2,0.6s8,1.9,8.2,3.8s-1.7,1.2-3.7,0.8c-3.1-0.8-6.2-1.3-9.4-1.5c-3.3,0-9.7-0.6-9.7-0.6L168.9,137.1
		z"/>
	<path class="st3" d="M197.1,142.8c-2.2,0.2-4.4,0.2-6.6,0c-2.2,0-4.4-0.2-6.6-0.6c2.2-0.2,4.4-0.2,6.6,0
		C192.7,142.3,194.9,142.5,197.1,142.8z"/>
	<path class="st0" d="M127.9,148.5c-0.1-1.1,0.2-2.2,0.8-3.1c0.4-1,1.2-1.8,2.2-2.4c0.1,0.1-0.9,1.1-1.7,2.6
		S128.1,148.5,127.9,148.5z"/>
	<path class="st0" d="M117.5,118.3c0.1,0.1,0.2,0.3,0.3,0.4c0.2,0.3,0.4,0.7,0.8,1.2c0.6,1.1,1.6,2.7,2.7,4.8
		c2.3,4.2,5.6,10.3,9.6,17.8l-0.2-0.1l38-8.1l0.3-0.1v0.3c0.4,5.5,0.9,11.2,1.4,17v0.1v0.2l-0.2,0c-11.3,2.4-22.1,4.5-32,6.1
		c-2.5,0.4-4.9,0.7-7.2,1c-2.3,0.3-4.6,0.4-6.9,0.5c-0.6,0-1.1-0.1-1.7-0.2c-0.3-0.1-0.6-0.2-0.8-0.3l-0.6-0.5
		c-0.4-0.3-0.8-0.7-1.2-1.1c-0.4-0.4-0.8-0.7-1.1-1.1c-0.7-0.8-1.4-1.5-1.9-2.3s-1.2-1.6-1.7-2.3c-4.4-6.2-7.4-11.5-9.5-15.2
		c-1-1.8-1.8-3.3-2.4-4.3c-0.2-0.5-0.4-0.9-0.6-1.1c-0.1-0.1-0.1-0.3-0.2-0.4c0.1,0.1,0.2,0.2,0.2,0.4l0.6,1.1l2.4,4.2
		c2.1,3.6,5.2,8.9,9.6,15.1c0.6,0.8,1.1,1.5,1.7,2.3s1.3,1.5,1.9,2.3c0.3,0.4,0.7,0.8,1.1,1.1c0.4,0.4,0.8,0.7,1.2,1l0.6,0.5
		c0.1,0.1,0.2,0.1,0.3,0.2c0.1,0.1,0.2,0.1,0.4,0.1c0.5,0.1,1.1,0.2,1.6,0.2c2.3,0,4.6-0.2,6.8-0.5c2.4-0.3,4.8-0.6,7.2-1
		c9.9-1.6,20.6-3.7,31.9-6.1l-0.2,0.3v-0.1c-0.5-5.8-0.9-11.5-1.4-17l0.3,0.2l-38,8h-0.1l-0.1-0.1c-3.9-7.6-7.2-13.7-9.5-17.9
		c-1.1-2.1-2-3.7-2.6-4.9l-0.7-1.3L117.5,118.3z"/>
</g>
</svg>
