<svg width="20" height="21" viewBox="0 0 20 21" fill="none" xmlns="http://www.w3.org/2000/svg">
<path d="M9.75266 2.47408C11.7833 2.47408 13.5075 3.83775 14.0471 5.70025H16.2757C15.6927 2.63123 12.9897 0.305176 9.75266 0.305176C6.51551 0.305176 3.8125 2.63123 3.22961 5.70022H5.45817C5.99762 3.83775 7.7193 2.47408 9.75266 2.47408Z" fill="currentColor"/>
<path d="M16.7815 6.9209H2.72161C1.37364 6.9209 0.270752 8.02363 0.270752 9.37176V17.8541C0.270752 19.2021 1.37364 20.305 2.72161 20.305H16.7815C18.1295 20.305 19.2324 19.2021 19.2324 17.8541V9.37176C19.2324 8.02367 18.1295 6.9209 16.7815 6.9209ZM13.3138 14.8329H10.9716V17.1751H8.53153V14.8329H6.18923V12.3929H8.53153V10.0506H10.9716V12.3929H13.3138V14.8329ZM17.9818 17.8546C17.9818 18.5171 17.4443 19.0546 16.7817 19.0546H13.8724L17.9818 14.9452V17.8546Z" fill="currentColor"/>
</svg>
