<svg width="17" height="18" viewBox="0 0 17 18" fill="none" xmlns="http://www.w3.org/2000/svg">
<path d="M6.11423 11.9883C6.11423 12.1872 6.03521 12.3779 5.89456 12.5186C5.75391 12.6592 5.56315 12.7383 5.36424 12.7383C5.16534 12.7383 4.97457 12.6592 4.83392 12.5186C4.69327 12.3779 4.61426 12.1872 4.61426 11.9883C4.61426 11.7894 4.69327 11.5986 4.83392 11.4579C4.97457 11.3173 5.16534 11.2383 5.36424 11.2383C5.56315 11.2383 5.75391 11.3173 5.89456 11.4579C6.03521 11.5986 6.11423 11.7894 6.11423 11.9883ZM9.11417 11.9883C9.11417 12.1872 9.03516 12.3779 8.89451 12.5186C8.75386 12.6592 8.5631 12.7383 8.36419 12.7383C8.16528 12.7383 7.97452 12.6592 7.83387 12.5186C7.69322 12.3779 7.6142 12.1872 7.6142 11.9883C7.6142 11.7894 7.69322 11.5986 7.83387 11.4579C7.97452 11.3173 8.16528 11.2383 8.36419 11.2383C8.5631 11.2383 8.75386 11.3173 8.89451 11.4579C9.03516 11.5986 9.11417 11.7894 9.11417 11.9883ZM12.1141 11.9883C12.1141 12.1872 12.0351 12.3779 11.8945 12.5186C11.7538 12.6592 11.563 12.7383 11.3641 12.7383C11.1652 12.7383 10.9745 12.6592 10.8338 12.5186C10.6932 12.3779 10.6141 12.1872 10.6141 11.9883C10.6141 11.7894 10.6932 11.5986 10.8338 11.4579C10.9745 11.3173 11.1652 11.2383 11.3641 11.2383C11.563 11.2383 11.7538 11.3173 11.8945 11.4579C12.0351 11.5986 12.1141 11.7894 12.1141 11.9883Z" fill="#163B45"/>
<path d="M3.86426 7.48894V5.98897C3.86426 5.73397 3.88526 5.48273 3.92651 5.23898M12.8641 7.48894V5.98897C12.8642 5.07491 12.5858 4.18252 12.0662 3.43053C11.5466 2.67855 10.8103 2.10264 9.95527 1.77945C9.10026 1.45626 8.1671 1.40111 7.27998 1.62134C6.39285 1.84157 5.59383 2.32673 4.98924 3.01227M7.61419 16.4888H5.36423C3.24327 16.4888 2.18204 16.4888 1.52356 15.8295C0.864319 15.171 0.864319 14.1098 0.864319 11.9889C0.864319 9.86789 0.864319 8.80666 1.52356 8.14818C2.18204 7.48894 3.24327 7.48894 5.36423 7.48894H11.3641C13.4851 7.48894 14.5463 7.48894 15.2048 8.14818C15.864 8.80666 15.864 9.86789 15.864 11.9889C15.864 14.1098 15.864 15.171 15.2048 15.8295C14.5463 16.4888 13.4851 16.4888 11.3641 16.4888H10.6141" stroke="#163B45" stroke-width="1.5" stroke-linecap="round"/>
</svg>
