<svg width="22" height="21" viewBox="0 0 22 21" fill="none" xmlns="http://www.w3.org/2000/svg">
<path fill-rule="evenodd" clip-rule="evenodd" d="M15.375 10.8609C15.375 10.4467 15.0392 10.1109 14.625 10.1109H3.65244L5.61309 8.43029C5.92759 8.16073 5.96401 7.68725 5.69444 7.37276C5.42488 7.05826 4.9514 7.02184 4.63691 7.29141L1.13691 10.2915C0.97067 10.4339 0.875 10.642 0.875 10.8609C0.875 11.0798 0.97067 11.2879 1.13691 11.4303L4.63691 14.4303C4.9514 14.6999 5.42488 14.6635 5.69444 14.349C5.96401 14.0345 5.92759 13.561 5.61309 13.2915L3.65244 11.6109H14.625C15.0392 11.6109 15.375 11.2751 15.375 10.8609Z" fill="currentColor"/>
<path d="M8.625 6.86084C8.625 7.56303 8.625 7.91413 8.79351 8.16634C8.86648 8.27555 8.96025 8.36932 9.06946 8.44229C9.3217 8.6108 9.6728 8.6108 10.375 8.6108H14.625C15.8676 8.6108 16.875 9.61814 16.875 10.8608C16.875 12.1034 15.8676 13.1108 14.625 13.1108H10.375C9.6728 13.1108 9.3216 13.1108 9.0694 13.2793C8.96023 13.3523 8.8665 13.446 8.79355 13.5552C8.625 13.8074 8.625 14.1585 8.625 14.8608C8.625 17.6892 8.625 19.1034 9.5037 19.9821C10.3824 20.8608 11.7964 20.8608 14.6248 20.8608H15.6248C18.4532 20.8608 19.8674 20.8608 20.7461 19.9821C21.6248 19.1034 21.6248 17.6892 21.6248 14.8608V6.86084C21.6248 4.03242 21.6248 2.6182 20.7461 1.73952C19.8674 0.86084 18.4532 0.86084 15.6248 0.86084H14.6248C11.7964 0.86084 10.3824 0.86084 9.5037 1.73952C8.625 2.6182 8.625 4.03241 8.625 6.86084Z" fill="currentColor"/>
</svg>
