<svg width="16" height="21" viewBox="0 0 16 21" fill="none" xmlns="http://www.w3.org/2000/svg">
<path d="M0.251465 2.22656C0.251465 1.53516 0.810059 0.976562 1.50146 0.976562H14.0015C14.6929 0.976562 15.2515 1.53516 15.2515 2.22656V3.47656C15.2515 4.16797 14.6929 4.72656 14.0015 4.72656H1.50146C0.810059 4.72656 0.251465 4.16797 0.251465 3.47656V2.22656ZM1.50146 5.97656H14.0015V18.4766C14.0015 19.8555 12.8804 20.9766 11.5015 20.9766H4.00146C2.62256 20.9766 1.50146 19.8555 1.50146 18.4766V17.2266H5.87646C6.22021 17.2266 6.50146 16.9453 6.50146 16.6016C6.50146 16.2578 6.22021 15.9766 5.87646 15.9766H1.50146V13.4766H5.87646C6.22021 13.4766 6.50146 13.1953 6.50146 12.8516C6.50146 12.5078 6.22021 12.2266 5.87646 12.2266H1.50146V9.72656H5.87646C6.22021 9.72656 6.50146 9.44531 6.50146 9.10156C6.50146 8.75781 6.22021 8.47656 5.87646 8.47656H1.50146V5.97656Z" fill="currentColor"/>
</svg>
