<svg width="14" height="11" viewBox="0 0 14 11" fill="none" xmlns="http://www.w3.org/2000/svg">
<path d="M7.9525 10.8278L13.171 5.58221L7.9525 0.336596C7.90537 0.274706 7.84549 0.223664 7.77692 0.186927C7.70835 0.150189 7.63268 0.128614 7.55505 0.12366C7.47742 0.118707 7.39962 0.130492 7.32694 0.158217C7.25426 0.185942 7.18838 0.22896 7.13377 0.284359C7.07915 0.339758 7.03708 0.406244 7.0104 0.479316C6.98371 0.552389 6.97304 0.630341 6.9791 0.707897C6.98516 0.785452 7.00782 0.8608 7.04553 0.928839C7.08324 0.996878 7.13514 1.05602 7.19769 1.10226L11.102 5.03919L0.713983 5.03919C0.569964 5.03919 0.431844 5.0964 0.330007 5.19823C0.22817 5.30007 0.170958 5.43819 0.170958 5.58221C0.170958 5.72623 0.22817 5.86435 0.330007 5.96619C0.431844 6.06802 0.569964 6.12524 0.713983 6.12524L11.102 6.12524L7.19769 10.0622C7.09616 10.1644 7.0394 10.3028 7.03991 10.4469C7.04042 10.591 7.09815 10.729 7.20041 10.8305C7.30266 10.9321 7.44106 10.9888 7.58516 10.9883C7.72926 10.9878 7.86725 10.9301 7.96879 10.8278L7.9525 10.8278Z" fill="currentColor"/>
</svg>
