<svg viewBox="0 0 20 21" fill="none" xmlns="http://www.w3.org/2000/svg">
<path fill-rule="evenodd" clip-rule="evenodd" d="M12.1538 1.10537C11.7835 0.953125 11.314 0.953125 10.375 0.953125C9.436 0.953125 8.9665 0.953125 8.5962 1.10537C8.1024 1.30836 7.71009 1.69771 7.50556 2.18776C7.41219 2.41147 7.37565 2.67163 7.36135 3.05112C7.34034 3.60881 7.05216 4.12502 6.56517 4.40406C6.07818 4.68309 5.48364 4.67266 4.98649 4.41188C4.64818 4.23442 4.40289 4.13575 4.16099 4.10415C3.63109 4.0349 3.09518 4.17742 2.67116 4.50033C2.35314 4.74251 2.11839 5.14602 1.6489 5.95305C1.17941 6.76009 0.944668 7.1636 0.892348 7.55803C0.822578 8.08392 0.966178 8.61579 1.29155 9.03662C1.44006 9.22872 1.64877 9.39013 1.9727 9.59212C2.44891 9.88912 2.75532 10.395 2.75529 10.9531C2.75526 11.5112 2.44886 12.017 1.9727 12.3139C1.64872 12.516 1.43997 12.6775 1.29145 12.8696C0.966078 13.2904 0.822488 13.8222 0.892248 14.3481C0.944568 14.7425 1.17932 15.1461 1.6488 15.9531C2.11829 16.7601 2.35304 17.1637 2.67106 17.4058C3.09508 17.7287 3.63099 17.8712 4.16089 17.802C4.40278 17.7704 4.64805 17.6717 4.98633 17.4943C5.48352 17.2335 6.0781 17.2231 6.56512 17.5021C7.05214 17.7812 7.34033 18.2974 7.36135 18.8552C7.37565 19.2346 7.41219 19.4948 7.50556 19.7185C7.71009 20.2085 8.1024 20.5979 8.5962 20.8009C8.9665 20.9531 9.436 20.9531 10.375 20.9531C11.314 20.9531 11.7835 20.9531 12.1538 20.8009C12.6476 20.5979 13.0399 20.2085 13.2444 19.7185C13.3378 19.4948 13.3744 19.2346 13.3887 18.8551C13.4097 18.2974 13.6978 17.7812 14.1848 17.5021C14.6718 17.223 15.2664 17.2335 15.7636 17.4943C16.1019 17.6717 16.3471 17.7703 16.589 17.8019C17.1189 17.8712 17.6548 17.7287 18.0788 17.4058C18.3969 17.1636 18.6316 16.7601 19.1011 15.953C19.5706 15.146 19.8053 14.7425 19.8577 14.3481C19.9274 13.8222 19.7838 13.2903 19.4585 12.8695C19.3099 12.6774 19.1012 12.5159 18.7772 12.3139C18.3011 12.017 17.9947 11.5111 17.9947 10.953C17.9947 10.3949 18.3011 9.88923 18.7772 9.59233C19.1013 9.39023 19.31 9.22882 19.4586 9.03662C19.7839 8.61585 19.9275 8.08399 19.8578 7.55809C19.8054 7.16367 19.5707 6.76016 19.1012 5.95312C18.6317 5.14609 18.397 4.74257 18.0789 4.50039C17.6549 4.17748 17.119 4.03498 16.5891 4.10422C16.3472 4.13582 16.1019 4.23448 15.7637 4.41192C15.2665 4.67271 14.6719 4.68315 14.1849 4.40409C13.6979 4.12504 13.4097 3.60878 13.3886 3.05106C13.3743 2.6716 13.3378 2.41146 13.2444 2.18776C13.0399 1.69771 12.6476 1.30836 12.1538 1.10537ZM10.375 13.9531C12.0445 13.9531 13.3978 12.61 13.3978 10.9531C13.3978 9.29622 12.0445 7.95312 10.375 7.95312C8.7055 7.95312 7.35216 9.29622 7.35216 10.9531C7.35216 12.61 8.7055 13.9531 10.375 13.9531Z" fill="currentColor"/>
</svg>
