<svg width="143" height="126" viewBox="0 0 143 126" fill="none" xmlns="http://www.w3.org/2000/svg">
<path d="M131.363 23.1252H17.7266C16.2197 23.1252 14.7745 22.5266 13.709 21.4611C12.6434 20.3955 12.0448 18.9503 12.0448 17.4434C12.0448 15.9365 12.6434 14.4913 13.709 13.4258C14.7745 12.3602 16.2197 11.7616 17.7266 11.7616H114.318C115.824 11.7616 117.27 11.163 118.335 10.0974C119.401 9.03187 119.999 7.58668 119.999 6.07977C119.999 4.57286 119.401 3.12766 118.335 2.06212C117.27 0.996569 115.824 0.397949 114.318 0.397949H17.7266C13.2059 0.397949 8.87029 2.1938 5.67365 5.39045C2.47701 8.58709 0.681152 12.9227 0.681152 17.4434V108.352C0.681152 112.873 2.47701 117.209 5.67365 120.405C8.87029 123.602 13.2059 125.398 17.7266 125.398H131.363C134.377 125.398 137.267 124.201 139.398 122.07C141.529 119.939 142.727 117.048 142.727 114.034V34.4889C142.727 31.475 141.529 28.5847 139.398 26.4536C137.267 24.3225 134.377 23.1252 131.363 23.1252ZM105.795 79.9434C104.109 79.9434 102.461 79.4436 101.06 78.5071C99.6583 77.5706 98.5659 76.2395 97.9208 74.6822C97.2757 73.1248 97.107 71.4112 97.4358 69.758C97.7647 68.1047 98.5764 66.5861 99.7683 65.3942C100.96 64.2023 102.479 63.3906 104.132 63.0617C105.785 62.7329 107.499 62.9016 109.056 63.5467C110.614 64.1918 111.945 65.2841 112.881 66.6857C113.818 68.0873 114.318 69.735 114.318 71.4207C114.318 73.681 113.42 75.8488 111.821 77.4472C110.223 79.0455 108.055 79.9434 105.795 79.9434Z" fill="currentColor"/>
</svg>
